<svg xmlns="http://www.w3.org/2000/svg" xmlns:xlink="http://www.w3.org/1999/xlink" width="220" zoomAndPan="magnify" viewBox="0 0 165 82.499998" height="110" preserveAspectRatio="xMidYMid meet" version="1.0"><defs><clipPath id="id1"><path d="M 0.496094 0 L 164.503906 0 L 164.503906 82.003906 L 0.496094 82.003906 Z M 0.496094 0 " clip-rule="nonzero"/></clipPath><clipPath id="id2"><path d="M 3.207031 20.464844 L 37 20.464844 L 37 61.464844 L 3.207031 61.464844 Z M 3.207031 20.464844 " clip-rule="nonzero"/></clipPath><clipPath id="id3"><path d="M 157 35 L 161.992188 35 L 161.992188 45 L 157 45 Z M 157 35 " clip-rule="nonzero"/></clipPath></defs><g clip-path="url(#id1)"><path fill="rgb(100%, 100%, 100%)" d="M 0.496094 0 L 164.503906 0 L 164.503906 171.460938 L 0.496094 171.460938 Z M 0.496094 0 " fill-opacity="1" fill-rule="nonzero"/><path fill="rgb(100%, 100%, 100%)" d="M 0.496094 0 L 164.503906 0 L 164.503906 82.003906 L 0.496094 82.003906 Z M 0.496094 0 " fill-opacity="1" fill-rule="nonzero"/><path fill="rgb(100%, 100%, 100%)" d="M 0.496094 0 L 164.503906 0 L 164.503906 82.003906 L 0.496094 82.003906 Z M 0.496094 0 " fill-opacity="1" fill-rule="nonzero"/><path fill="rgb(100%, 100%, 100%)" d="M 0.496094 0 L 164.503906 0 L 164.503906 82.003906 L 0.496094 82.003906 Z M 0.496094 0 " fill-opacity="1" fill-rule="nonzero"/></g><g clip-path="url(#id2)"><path fill="rgb(85.099792%, 19.60907%, 19.60907%)" d="M 9.332031 50.675781 C 9.320312 50.6875 9.308594 50.695312 9.300781 50.707031 C 9.308594 50.695312 9.320312 50.6875 9.332031 50.675781 Z M 16.152344 44.140625 C 16.238281 44.070312 16.328125 44.003906 16.414062 43.9375 C 16.328125 44.003906 16.238281 44.070312 16.152344 44.140625 Z M 14.273438 45.933594 C 14.242188 45.964844 14.207031 46 14.171875 46.03125 C 14.207031 46 14.242188 45.964844 14.273438 45.933594 Z M 14.085938 58.707031 C 14.007812 58.1875 13.527344 57.832031 13.007812 57.910156 C 12.929688 57.921875 12.851562 57.945312 12.78125 57.972656 C 12.984375 58.191406 13.179688 58.402344 13.359375 58.589844 C 13.65625 58.910156 13.882812 59.066406 14.054688 59.121094 C 14.09375 58.992188 14.105469 58.851562 14.085938 58.707031 Z M 15.257812 56.261719 C 14.738281 56.339844 14.386719 56.824219 14.460938 57.34375 C 14.542969 57.863281 15.023438 58.222656 15.539062 58.144531 C 16.054688 58.0625 16.410156 57.578125 16.332031 57.058594 C 16.253906 56.539062 15.773438 56.183594 15.257812 56.261719 Z M 18.085938 48.019531 C 18.160156 48.503906 18.613281 48.839844 19.097656 48.765625 C 19.582031 48.695312 19.914062 48.238281 19.839844 47.753906 C 19.832031 47.691406 19.816406 47.632812 19.796875 47.578125 C 19.671875 47.230469 19.339844 46.996094 18.96875 46.996094 C 18.925781 46.992188 18.878906 46.996094 18.832031 47.003906 C 18.347656 47.078125 18.015625 47.53125 18.085938 48.019531 Z M 18.777344 50.722656 C 19.269531 50.648438 19.605469 50.1875 19.53125 49.695312 C 19.457031 49.199219 19 48.863281 18.507812 48.9375 C 18.015625 49.011719 17.679688 49.472656 17.753906 49.964844 C 17.828125 50.457031 18.285156 50.796875 18.777344 50.722656 Z M 18.457031 52.679688 C 18.953125 52.605469 19.296875 52.136719 19.222656 51.636719 C 19.144531 51.136719 18.679688 50.792969 18.183594 50.867188 C 17.6875 50.945312 17.34375 51.410156 17.421875 51.910156 C 17.496094 52.410156 17.960938 52.753906 18.457031 52.679688 Z M 18.136719 54.636719 C 18.640625 54.558594 18.988281 54.085938 18.910156 53.578125 C 18.835938 53.074219 18.363281 52.726562 17.859375 52.800781 C 17.355469 52.878906 17.011719 53.351562 17.085938 53.855469 C 17.164062 54.363281 17.632812 54.710938 18.136719 54.636719 Z M 18.601562 55.523438 C 18.523438 55.007812 18.046875 54.65625 17.539062 54.734375 C 17.027344 54.8125 16.675781 55.289062 16.753906 55.804688 C 16.832031 56.316406 17.308594 56.667969 17.816406 56.589844 C 18.328125 56.515625 18.675781 56.035156 18.601562 55.523438 Z M 17.214844 56.667969 C 16.695312 56.746094 16.34375 57.230469 16.421875 57.75 C 16.496094 58.269531 16.980469 58.625 17.496094 58.546875 C 18.011719 58.46875 18.367188 57.984375 18.289062 57.464844 C 18.210938 56.945312 17.730469 56.589844 17.214844 56.667969 Z M 20.171875 48.304688 C 20.230469 48.714844 20.613281 48.996094 21.019531 48.933594 C 21.332031 48.886719 21.570312 48.648438 21.632812 48.351562 C 21.164062 48.230469 20.699219 48.054688 20.253906 47.832031 C 20.179688 47.96875 20.144531 48.136719 20.171875 48.304688 Z M 20.695312 50.882812 C 21.105469 50.820312 21.390625 50.4375 21.328125 50.023438 C 21.265625 49.609375 20.882812 49.328125 20.472656 49.390625 C 20.0625 49.453125 19.78125 49.835938 19.839844 50.25 C 19.902344 50.664062 20.289062 50.945312 20.695312 50.882812 Z M 19.515625 52.195312 C 19.578125 52.609375 19.960938 52.898438 20.375 52.835938 C 20.789062 52.769531 21.074219 52.382812 21.011719 51.96875 C 20.949219 51.550781 20.5625 51.265625 20.148438 51.328125 C 19.734375 51.390625 19.453125 51.777344 19.515625 52.195312 Z M 19.828125 53.265625 C 19.410156 53.328125 19.121094 53.71875 19.1875 54.140625 C 19.25 54.558594 19.636719 54.847656 20.054688 54.785156 C 20.472656 54.722656 20.761719 54.332031 20.695312 53.910156 C 20.632812 53.488281 20.242188 53.203125 19.828125 53.265625 Z M 19.503906 55.203125 C 19.082031 55.265625 18.792969 55.664062 18.855469 56.085938 C 18.921875 56.507812 19.3125 56.800781 19.734375 56.734375 C 20.15625 56.671875 20.445312 56.277344 20.382812 55.851562 C 20.316406 55.429688 19.925781 55.140625 19.503906 55.203125 Z M 19.179688 57.140625 C 18.757812 57.207031 18.464844 57.605469 18.527344 58.03125 C 18.59375 58.457031 18.988281 58.75 19.414062 58.6875 C 19.839844 58.621094 20.128906 58.222656 20.066406 57.796875 C 20.003906 57.371094 19.605469 57.078125 19.179688 57.140625 Z M 22.855469 49.125 C 23.136719 49.082031 23.347656 48.851562 23.382812 48.578125 C 22.964844 48.578125 22.546875 48.539062 22.136719 48.464844 C 22.132812 48.507812 22.136719 48.550781 22.140625 48.597656 C 22.195312 48.9375 22.511719 49.175781 22.855469 49.125 Z M 22.539062 51.085938 C 22.894531 51.03125 23.136719 50.699219 23.085938 50.34375 C 23.03125 49.984375 22.699219 49.742188 22.347656 49.796875 C 21.992188 49.847656 21.75 50.179688 21.800781 50.539062 C 21.855469 50.894531 22.1875 51.140625 22.539062 51.085938 Z M 22.226562 53.046875 C 22.59375 52.992188 22.84375 52.644531 22.789062 52.277344 C 22.734375 51.910156 22.390625 51.65625 22.023438 51.710938 C 21.65625 51.765625 21.40625 52.109375 21.460938 52.480469 C 21.515625 52.847656 21.859375 53.101562 22.226562 53.046875 Z M 22.496094 54.210938 C 22.4375 53.832031 22.082031 53.566406 21.703125 53.625 C 21.324219 53.683594 21.0625 54.039062 21.121094 54.421875 C 21.179688 54.800781 21.53125 55.066406 21.910156 55.007812 C 22.292969 54.949219 22.550781 54.59375 22.496094 54.210938 Z M 21.382812 55.542969 C 20.992188 55.601562 20.722656 55.96875 20.78125 56.363281 C 20.839844 56.757812 21.207031 57.027344 21.597656 56.96875 C 21.988281 56.910156 22.257812 56.542969 22.199219 56.148438 C 22.140625 55.753906 21.773438 55.480469 21.382812 55.542969 Z M 21.0625 57.457031 C 20.660156 57.519531 20.378906 57.898438 20.441406 58.304688 C 20.503906 58.710938 20.878906 58.992188 21.285156 58.929688 C 21.6875 58.867188 21.96875 58.488281 21.90625 58.082031 C 21.84375 57.675781 21.46875 57.394531 21.0625 57.457031 Z M 24.304688 48.867188 C 24.339844 49.089844 24.542969 49.242188 24.761719 49.207031 C 24.980469 49.175781 25.132812 48.96875 25.097656 48.746094 C 25.078125 48.59375 24.96875 48.476562 24.832031 48.429688 C 24.773438 48.40625 24.710938 48.398438 24.644531 48.410156 C 24.566406 48.421875 24.5 48.453125 24.445312 48.5 C 24.34375 48.585938 24.285156 48.722656 24.304688 48.867188 Z M 24.457031 51.210938 C 24.710938 51.175781 24.886719 50.933594 24.847656 50.675781 C 24.808594 50.417969 24.570312 50.242188 24.316406 50.28125 C 24.058594 50.320312 23.882812 50.558594 23.921875 50.816406 C 23.960938 51.074219 24.199219 51.253906 24.457031 51.210938 Z M 24.148438 53.21875 C 24.441406 53.175781 24.644531 52.898438 24.597656 52.605469 C 24.554688 52.308594 24.28125 52.105469 23.988281 52.152344 C 23.695312 52.195312 23.492188 52.472656 23.539062 52.765625 C 23.582031 53.058594 23.855469 53.261719 24.148438 53.21875 Z M 23.660156 54.023438 C 23.332031 54.074219 23.101562 54.382812 23.152344 54.714844 C 23.203125 55.046875 23.511719 55.273438 23.839844 55.222656 C 24.171875 55.175781 24.398438 54.863281 24.347656 54.53125 C 24.296875 54.199219 23.992188 53.972656 23.660156 54.023438 Z M 23.332031 55.894531 C 22.964844 55.949219 22.710938 56.292969 22.769531 56.664062 C 22.824219 57.03125 23.167969 57.285156 23.535156 57.230469 C 23.902344 57.175781 24.152344 56.828125 24.097656 56.460938 C 24.042969 56.089844 23.699219 55.835938 23.332031 55.894531 Z M 23.003906 57.765625 C 22.601562 57.824219 22.324219 58.203125 22.382812 58.613281 C 22.445312 59.019531 22.824219 59.296875 23.226562 59.234375 C 23.632812 59.175781 23.910156 58.796875 23.847656 58.386719 C 23.785156 57.980469 23.410156 57.703125 23.003906 57.765625 Z M 26.675781 49.417969 C 26.796875 49.402344 26.878906 49.289062 26.859375 49.167969 C 26.84375 49.046875 26.730469 48.960938 26.609375 48.980469 C 26.488281 49 26.40625 49.113281 26.421875 49.234375 C 26.441406 49.355469 26.554688 49.4375 26.675781 49.417969 Z M 26.359375 51.433594 C 26.523438 51.40625 26.636719 51.25 26.613281 51.085938 C 26.589844 50.921875 26.433594 50.804688 26.269531 50.832031 C 26.105469 50.855469 25.992188 51.011719 26.015625 51.175781 C 26.042969 51.34375 26.195312 51.457031 26.359375 51.433594 Z M 25.933594 52.683594 C 25.722656 52.714844 25.578125 52.910156 25.613281 53.121094 C 25.644531 53.328125 25.839844 53.472656 26.046875 53.441406 C 26.253906 53.410156 26.398438 53.214844 26.367188 53.003906 C 26.335938 52.796875 26.140625 52.652344 25.933594 52.683594 Z M 25.59375 54.535156 C 25.339844 54.574219 25.167969 54.808594 25.207031 55.0625 C 25.242188 55.316406 25.480469 55.492188 25.730469 55.453125 C 25.984375 55.414062 26.15625 55.179688 26.121094 54.925781 C 26.082031 54.671875 25.847656 54.496094 25.59375 54.535156 Z M 25.253906 56.386719 C 24.960938 56.429688 24.753906 56.710938 24.800781 57.007812 C 24.84375 57.304688 25.121094 57.511719 25.417969 57.464844 C 25.714844 57.421875 25.917969 57.144531 25.871094 56.84375 C 25.828125 56.546875 25.550781 56.339844 25.253906 56.386719 Z M 24.917969 58.238281 C 24.578125 58.289062 24.34375 58.609375 24.394531 58.953125 C 24.445312 59.292969 24.761719 59.527344 25.101562 59.476562 C 25.441406 59.425781 25.675781 59.105469 25.625 58.765625 C 25.574219 58.421875 25.257812 58.1875 24.917969 58.238281 Z M 28.601562 49.5625 C 28.644531 49.554688 28.671875 49.515625 28.667969 49.472656 C 28.660156 49.429688 28.621094 49.398438 28.578125 49.40625 C 28.535156 49.410156 28.503906 49.453125 28.511719 49.496094 C 28.515625 49.539062 28.558594 49.566406 28.601562 49.5625 Z M 28.425781 51.394531 C 28.414062 51.300781 28.328125 51.238281 28.234375 51.253906 C 28.144531 51.265625 28.082031 51.351562 28.097656 51.445312 C 28.109375 51.535156 28.195312 51.597656 28.285156 51.585938 C 28.378906 51.570312 28.441406 51.484375 28.425781 51.394531 Z M 27.894531 53.101562 C 27.757812 53.121094 27.660156 53.253906 27.679688 53.394531 C 27.703125 53.535156 27.832031 53.628906 27.972656 53.609375 C 28.113281 53.589844 28.207031 53.457031 28.1875 53.316406 C 28.164062 53.175781 28.035156 53.082031 27.894531 53.101562 Z M 27.554688 54.949219 C 27.367188 54.980469 27.238281 55.15625 27.265625 55.34375 C 27.296875 55.53125 27.46875 55.664062 27.65625 55.632812 C 27.847656 55.605469 27.976562 55.429688 27.945312 55.238281 C 27.917969 55.050781 27.742188 54.921875 27.554688 54.949219 Z M 27.214844 56.796875 C 26.980469 56.835938 26.816406 57.054688 26.851562 57.292969 C 26.886719 57.53125 27.109375 57.695312 27.34375 57.65625 C 27.582031 57.621094 27.742188 57.402344 27.707031 57.164062 C 27.671875 56.925781 27.449219 56.761719 27.214844 56.796875 Z M 26.875 58.648438 C 26.589844 58.691406 26.394531 58.957031 26.4375 59.242188 C 26.480469 59.527344 26.746094 59.726562 27.03125 59.683594 C 27.3125 59.636719 27.511719 59.371094 27.464844 59.085938 C 27.421875 58.800781 27.160156 58.605469 26.875 58.648438 Z M 30.207031 51.683594 C 30.164062 51.6875 30.132812 51.730469 30.140625 51.773438 C 30.148438 51.816406 30.1875 51.847656 30.230469 51.839844 C 30.273438 51.832031 30.300781 51.792969 30.296875 51.75 C 30.289062 51.707031 30.25 51.675781 30.207031 51.683594 Z M 29.851562 53.527344 C 29.753906 53.542969 29.6875 53.632812 29.703125 53.730469 C 29.71875 53.828125 29.808594 53.894531 29.90625 53.878906 C 30 53.863281 30.070312 53.773438 30.054688 53.675781 C 30.039062 53.578125 29.949219 53.511719 29.851562 53.527344 Z M 29.496094 55.371094 C 29.34375 55.394531 29.242188 55.535156 29.265625 55.6875 C 29.289062 55.839844 29.429688 55.945312 29.578125 55.921875 C 29.730469 55.898438 29.835938 55.757812 29.8125 55.605469 C 29.789062 55.453125 29.648438 55.347656 29.496094 55.371094 Z M 29.140625 57.214844 C 28.9375 57.246094 28.796875 57.4375 28.828125 57.644531 C 28.855469 57.851562 29.050781 57.992188 29.253906 57.960938 C 29.460938 57.929688 29.601562 57.738281 29.570312 57.53125 C 29.539062 57.324219 29.347656 57.183594 29.140625 57.214844 Z M 28.789062 59.058594 C 28.527344 59.097656 28.347656 59.34375 28.390625 59.601562 C 28.429688 59.863281 28.671875 60.042969 28.929688 60.003906 C 29.1875 59.964844 29.367188 59.722656 29.328125 59.460938 C 29.289062 59.199219 29.046875 59.019531 28.789062 59.058594 Z M 12.488281 57.082031 C 12.429688 57.199219 12.347656 57.308594 12.246094 57.398438 C 11.785156 56.902344 11.316406 56.386719 10.910156 55.914062 C 10.882812 55.890625 10.851562 55.863281 10.824219 55.839844 C 10.675781 55.707031 10.53125 55.574219 10.390625 55.441406 C 10.375 55.425781 10.359375 55.410156 10.34375 55.398438 L 10.261719 55.730469 C 10.261719 55.730469 10.0625 57.546875 9.1875 55.75 C 9.132812 55.632812 9.070312 55.507812 9.011719 55.382812 C 8.554688 54.417969 8.015625 53.234375 7.585938 52.257812 C 7.585938 52.257812 7.441406 51.921875 7.371094 51.765625 C 7.277344 51.613281 7.179688 51.460938 7.089844 51.304688 L 6.863281 51.753906 C 6.863281 51.753906 6.25 53.207031 5.964844 51.507812 C 5.738281 50.148438 5.363281 48.164062 5.175781 46.851562 C 5.140625 46.726562 5.105469 46.597656 5.070312 46.472656 L 4.617188 46.972656 C 4.617188 46.972656 3.65625 48.148438 3.894531 46.210938 C 4.070312 44.800781 4.253906 42.832031 4.421875 41.585938 C 4.421875 41.484375 4.421875 41.382812 4.425781 41.28125 L 3.984375 41.507812 C 3.984375 41.507812 2.75 42.328125 3.402344 40.640625 C 3.894531 39.375 4.605469 37.566406 5.113281 36.402344 C 5.140625 36.308594 5.164062 36.214844 5.195312 36.121094 L 4.753906 36.214844 C 4.753906 36.214844 3.382812 36.59375 4.285156 35.359375 C 5.09375 34.257812 6.347656 32.625 7.183594 31.605469 C 7.234375 31.527344 7.28125 31.445312 7.332031 31.367188 L 6.324219 31.25 C 6.324219 31.25 5.382812 31.097656 6.699219 30.117188 C 7.898438 29.230469 9.625 28.058594 10.632812 27.371094 L 9.574219 27.089844 C 9.574219 27.089844 8.570312 26.855469 9.6875 26.417969 C 11.113281 25.859375 13.617188 24.867188 14.933594 24.429688 L 13.695312 23.527344 C 13.695312 23.527344 13.046875 23.101562 14.300781 23.042969 C 15.84375 22.96875 18.488281 22.835938 19.847656 22.777344 L 19.839844 22.78125 C 19.847656 22.777344 19.851562 22.777344 19.859375 22.777344 L 18.96875 21.703125 C 18.96875 21.703125 18.175781 20.867188 19.453125 21.195312 C 21.019531 21.597656 23.683594 22.183594 25.027344 22.503906 L 24.34375 21.199219 C 24.34375 21.199219 23.660156 20.007812 24.75 20.660156 C 26.199219 21.527344 28.835938 22.949219 30.082031 23.644531 L 29.59375 21.542969 C 29.59375 21.542969 29.171875 20.039062 30.292969 21.320312 C 31.546875 22.753906 33.625 25.109375 34.605469 26.105469 C 35.800781 27.023438 36.660156 28.390625 36.902344 30.003906 C 37.398438 33.304688 35.140625 36.386719 31.859375 36.886719 C 30.113281 37.152344 28.429688 36.632812 27.160156 35.589844 C 25.730469 34.671875 24.042969 34.308594 22.351562 34.566406 C 20.5 34.847656 18.871094 35.835938 17.757812 37.351562 C 16.371094 39.246094 16.070312 41.609375 16.734375 43.691406 C 16.820312 43.960938 16.921875 44.222656 17.039062 44.480469 C 17.042969 44.492188 17.046875 44.5 17.050781 44.511719 C 17.332031 45.117188 17.699219 45.6875 18.152344 46.203125 C 18 46.390625 17.785156 46.53125 17.535156 46.578125 C 17.792969 46.734375 17.988281 47 18.035156 47.324219 C 18.121094 47.894531 17.730469 48.429688 17.164062 48.515625 C 17.160156 48.515625 17.160156 48.515625 17.15625 48.515625 C 17.433594 48.660156 17.644531 48.933594 17.695312 49.273438 C 17.777344 49.832031 17.394531 50.355469 16.835938 50.441406 C 16.8125 50.445312 16.789062 50.445312 16.765625 50.449219 C 17.070312 50.582031 17.300781 50.863281 17.355469 51.21875 C 17.4375 51.769531 17.058594 52.28125 16.511719 52.367188 C 16.457031 52.375 16.40625 52.375 16.351562 52.375 C 16.691406 52.488281 16.957031 52.785156 17.015625 53.164062 C 17.09375 53.707031 16.726562 54.210938 16.1875 54.292969 C 15.679688 54.371094 15.207031 54.042969 15.085938 53.550781 C 14.945312 53.8125 14.699219 54.015625 14.398438 54.09375 C 14.625 54.253906 14.792969 54.503906 14.835938 54.800781 C 14.839844 54.820312 14.839844 54.839844 14.84375 54.859375 C 14.972656 54.570312 15.242188 54.351562 15.574219 54.300781 C 16.101562 54.21875 16.59375 54.582031 16.671875 55.113281 C 16.753906 55.644531 16.390625 56.136719 15.863281 56.21875 C 15.335938 56.296875 14.847656 55.933594 14.765625 55.402344 C 14.765625 55.394531 14.765625 55.382812 14.761719 55.375 C 14.625 55.703125 14.328125 55.953125 13.953125 56.007812 C 13.945312 56.011719 13.9375 56.011719 13.929688 56.011719 C 14.203125 56.152344 14.410156 56.421875 14.460938 56.753906 C 14.542969 57.304688 14.167969 57.816406 13.621094 57.898438 C 13.085938 57.980469 12.582031 57.617188 12.488281 57.082031 Z M 13.503906 53.941406 C 13.324219 53.824219 13.183594 53.652344 13.097656 53.449219 C 12.964844 53.613281 12.792969 53.742188 12.585938 53.816406 C 12.75 53.953125 12.871094 54.140625 12.929688 54.351562 C 13.066406 54.160156 13.265625 54.011719 13.503906 53.941406 Z M 13.710938 51.980469 C 13.585938 51.878906 13.480469 51.75 13.40625 51.605469 C 13.292969 51.722656 13.160156 51.820312 13.007812 51.890625 C 13.121094 52.003906 13.214844 52.140625 13.273438 52.296875 C 13.386719 52.15625 13.535156 52.050781 13.710938 51.980469 Z M 13.929688 50.019531 C 13.847656 49.941406 13.773438 49.851562 13.714844 49.75 C 13.628906 49.832031 13.527344 49.90625 13.421875 49.960938 C 13.496094 50.046875 13.5625 50.144531 13.609375 50.253906 C 13.703125 50.160156 13.808594 50.078125 13.929688 50.019531 Z M 14.164062 48.0625 C 14.113281 48.011719 14.066406 47.953125 14.023438 47.890625 C 13.964844 47.945312 13.898438 47.992188 13.824219 48.035156 C 13.871094 48.089844 13.910156 48.152344 13.949219 48.21875 C 14.011719 48.160156 14.085938 48.105469 14.164062 48.0625 Z M 14.398438 46.105469 C 14.355469 46.050781 14.3125 45.992188 14.273438 45.933594 C 14.242188 45.964844 14.207031 46 14.171875 46.03125 C 14.214844 46.082031 14.25 46.132812 14.285156 46.191406 C 14.320312 46.160156 14.359375 46.132812 14.398438 46.105469 Z M 16.050781 52.324219 C 15.757812 52.230469 15.519531 52 15.417969 51.699219 C 15.28125 51.914062 15.078125 52.082031 14.835938 52.171875 C 15.019531 52.328125 15.152344 52.546875 15.203125 52.800781 C 15.347656 52.558594 15.59375 52.382812 15.894531 52.335938 C 15.945312 52.328125 16 52.324219 16.050781 52.324219 Z M 16.277344 50.367188 C 16.046875 50.265625 15.855469 50.074219 15.75 49.835938 C 15.625 50.011719 15.457031 50.152344 15.253906 50.242188 C 15.398438 50.386719 15.503906 50.5625 15.558594 50.769531 C 15.710938 50.5625 15.941406 50.414062 16.214844 50.371094 C 16.234375 50.371094 16.257812 50.367188 16.277344 50.367188 Z M 16.53125 48.410156 C 16.34375 48.3125 16.1875 48.15625 16.085938 47.964844 C 15.976562 48.109375 15.832031 48.230469 15.667969 48.316406 C 15.777344 48.4375 15.863281 48.585938 15.914062 48.75 C 16.070312 48.574219 16.28125 48.449219 16.53125 48.410156 Z M 16.800781 46.457031 C 16.644531 46.367188 16.515625 46.242188 16.421875 46.085938 C 16.324219 46.207031 16.207031 46.308594 16.074219 46.386719 C 16.15625 46.492188 16.226562 46.609375 16.273438 46.742188 C 16.414062 46.601562 16.59375 46.5 16.800781 46.457031 Z M 9.332031 50.675781 C 9.320312 50.6875 9.308594 50.695312 9.300781 50.707031 C 9.308594 50.695312 9.320312 50.6875 9.332031 50.675781 Z M 11.460938 53.628906 C 11.335938 53.527344 11.230469 53.398438 11.15625 53.25 C 11.046875 53.371094 10.914062 53.46875 10.761719 53.539062 C 10.875 53.648438 10.964844 53.785156 11.023438 53.941406 C 11.140625 53.804688 11.289062 53.695312 11.460938 53.628906 Z M 11.683594 51.667969 C 11.597656 51.589844 11.527344 51.5 11.464844 51.398438 C 11.378906 51.480469 11.28125 51.550781 11.171875 51.609375 C 11.25 51.695312 11.3125 51.792969 11.363281 51.898438 C 11.457031 51.804688 11.5625 51.726562 11.683594 51.667969 Z M 11.914062 49.710938 C 11.863281 49.65625 11.820312 49.597656 11.777344 49.535156 C 11.714844 49.589844 11.648438 49.640625 11.578125 49.679688 C 11.625 49.738281 11.664062 49.800781 11.699219 49.863281 C 11.765625 49.804688 11.835938 49.753906 11.914062 49.710938 Z M 12.585938 56.382812 C 12.730469 56.109375 12.996094 56.101562 13.324219 55.796875 C 13.074219 55.796875 12.878906 55.503906 12.789062 55.222656 C 12.644531 55.445312 12.421875 55.613281 12.152344 55.683594 C 12.375 55.84375 12.539062 56.089844 12.585938 56.382812 Z M 16.082031 59.085938 C 16 58.554688 15.507812 58.1875 14.980469 58.269531 C 14.53125 58.335938 14.203125 58.707031 14.164062 59.144531 C 14.503906 59.164062 14.574219 58.699219 14.585938 58.449219 C 14.859375 58.59375 15.136719 58.730469 15.414062 58.859375 C 15.628906 59.003906 15.859375 59.148438 16.089844 59.296875 C 16.09375 59.226562 16.09375 59.15625 16.082031 59.085938 Z M 17.921875 59.402344 C 17.847656 58.90625 17.386719 58.566406 16.894531 58.640625 C 16.519531 58.699219 16.234375 58.984375 16.152344 59.339844 C 16.636719 59.644531 17.140625 59.953125 17.605469 60.234375 C 17.839844 60.035156 17.96875 59.726562 17.921875 59.402344 Z M 19.761719 59.71875 C 19.691406 59.261719 19.265625 58.945312 18.8125 59.015625 C 18.355469 59.085938 18.042969 59.511719 18.113281 59.972656 C 18.179688 60.429688 18.605469 60.742188 19.0625 60.671875 C 19.265625 60.640625 19.441406 60.539062 19.566406 60.390625 C 19.554688 60.332031 19.539062 60.273438 19.523438 60.222656 C 19.570312 60.234375 19.617188 60.242188 19.664062 60.25 C 19.75 60.09375 19.789062 59.910156 19.761719 59.71875 Z M 21.597656 60.039062 C 21.535156 59.617188 21.144531 59.328125 20.726562 59.390625 C 20.308594 59.453125 20.019531 59.847656 20.082031 60.269531 C 20.085938 60.289062 20.09375 60.3125 20.097656 60.335938 C 20.257812 60.363281 20.417969 60.390625 20.578125 60.414062 C 20.847656 60.496094 21.132812 60.578125 21.417969 60.660156 C 21.5625 60.496094 21.632812 60.269531 21.597656 60.039062 Z M 23.4375 60.355469 C 23.382812 59.972656 23.023438 59.707031 22.640625 59.765625 C 22.261719 59.824219 21.996094 60.179688 22.054688 60.566406 C 22.074219 60.683594 22.117188 60.789062 22.183594 60.878906 C 22.46875 60.957031 22.753906 61.035156 23.019531 61.109375 C 23.308594 60.984375 23.488281 60.679688 23.4375 60.355469 Z M 24.558594 60.140625 C 24.210938 60.191406 23.972656 60.515625 24.027344 60.863281 C 24.078125 61.210938 24.402344 61.449219 24.746094 61.398438 C 24.792969 61.390625 24.832031 61.378906 24.875 61.367188 C 25.089844 61.191406 24.886719 60.800781 24.742188 60.570312 C 24.90625 60.558594 25.074219 60.546875 25.238281 60.527344 C 25.128906 60.261719 24.851562 60.09375 24.558594 60.140625 Z M 31.109375 57.648438 C 30.945312 57.671875 30.832031 57.828125 30.855469 57.992188 C 30.882812 58.160156 31.035156 58.273438 31.199219 58.25 C 31.363281 58.222656 31.480469 58.070312 31.453125 57.902344 C 31.429688 57.734375 31.273438 57.621094 31.109375 57.648438 Z M 33.074219 58.0625 C 32.957031 58.082031 32.875 58.191406 32.894531 58.3125 C 32.902344 58.367188 32.933594 58.417969 32.976562 58.449219 C 33.019531 58.484375 33.078125 58.503906 33.140625 58.492188 C 33.21875 58.480469 33.28125 58.421875 33.308594 58.351562 C 33.320312 58.320312 33.324219 58.28125 33.320312 58.246094 C 33.300781 58.125 33.191406 58.046875 33.074219 58.0625 Z M 33.402344 56.230469 C 33.347656 56.242188 33.308594 56.292969 33.316406 56.351562 C 33.324219 56.410156 33.378906 56.449219 33.433594 56.441406 C 33.492188 56.429688 33.53125 56.378906 33.523438 56.320312 C 33.515625 56.261719 33.460938 56.222656 33.402344 56.230469 Z M 31.449219 55.789062 C 31.324219 55.808594 31.238281 55.925781 31.257812 56.050781 C 31.273438 56.175781 31.390625 56.261719 31.515625 56.242188 C 31.640625 56.222656 31.726562 56.105469 31.707031 55.980469 C 31.6875 55.855469 31.570312 55.769531 31.449219 55.789062 Z M 31.785156 53.972656 C 31.738281 53.980469 31.703125 54.027344 31.710938 54.074219 C 31.71875 54.121094 31.765625 54.15625 31.8125 54.148438 C 31.859375 54.140625 31.894531 54.097656 31.886719 54.046875 C 31.878906 54 31.835938 53.964844 31.785156 53.972656 Z M 31.785156 53.972656 " fill-opacity="1" fill-rule="nonzero"/></g><path fill="rgb(6.669617%, 11.369324%, 14.118958%)" d="M 58.359375 37.574219 L 58.359375 38.222656 C 58.359375 38.601562 58.113281 38.847656 57.738281 38.847656 C 57.355469 38.847656 57.121094 38.601562 57.121094 38.222656 L 57.121094 37.363281 C 57.121094 36.863281 56.847656 36.617188 56.414062 36.617188 C 55.980469 36.617188 55.71875 36.863281 55.71875 37.363281 L 55.71875 42.554688 C 55.71875 43.058594 55.980469 43.300781 56.414062 43.300781 C 56.847656 43.300781 57.121094 43.058594 57.121094 42.554688 L 57.121094 41.699219 C 57.121094 41.320312 57.355469 41.074219 57.738281 41.074219 C 58.113281 41.074219 58.359375 41.320312 58.359375 41.699219 L 58.359375 42.347656 C 58.359375 43.59375 57.679688 44.414062 56.402344 44.414062 C 55.101562 44.414062 54.40625 43.621094 54.40625 42.347656 L 54.40625 37.574219 C 54.40625 36.300781 55.097656 35.503906 56.402344 35.503906 C 57.679688 35.503906 58.359375 36.324219 58.359375 37.574219 Z M 58.359375 37.574219 " fill-opacity="1" fill-rule="nonzero"/><path fill="rgb(6.669617%, 11.369324%, 14.118958%)" d="M 62.75 37.546875 C 62.75 36.3125 63.542969 35.503906 64.804688 35.503906 C 66.070312 35.503906 66.863281 36.3125 66.863281 37.546875 L 66.863281 42.371094 C 66.863281 43.609375 66.070312 44.417969 64.804688 44.417969 C 63.542969 44.417969 62.75 43.609375 62.75 42.371094 Z M 65.550781 37.363281 C 65.550781 36.925781 65.265625 36.617188 64.804688 36.617188 C 64.347656 36.617188 64.0625 36.925781 64.0625 37.363281 L 64.0625 42.554688 C 64.0625 42.996094 64.347656 43.300781 64.804688 43.300781 C 65.265625 43.300781 65.550781 42.996094 65.550781 42.554688 Z M 65.550781 37.363281 " fill-opacity="1" fill-rule="nonzero"/><path fill="rgb(6.669617%, 11.369324%, 14.118958%)" d="M 72.183594 35.675781 L 73.324219 35.675781 C 74.859375 35.675781 75.578125 36.570312 75.578125 37.941406 L 75.578125 41.980469 C 75.578125 43.351562 74.859375 44.246094 73.324219 44.246094 L 72.183594 44.246094 C 71.796875 44.246094 71.527344 43.976562 71.527344 43.597656 L 71.527344 36.324219 C 71.527344 35.945312 71.796875 35.675781 72.183594 35.675781 Z M 73.335938 43.105469 C 73.957031 43.105469 74.265625 42.738281 74.265625 42.175781 L 74.265625 37.742188 C 74.265625 37.179688 73.957031 36.8125 73.335938 36.8125 L 72.839844 36.8125 L 72.839844 43.105469 Z M 73.335938 43.105469 " fill-opacity="1" fill-rule="nonzero"/><path fill="rgb(6.669617%, 11.369324%, 14.118958%)" d="M 80.242188 36.203125 C 80.242188 35.824219 80.5 35.554688 80.898438 35.554688 C 81.28125 35.554688 81.554688 35.824219 81.554688 36.203125 L 81.554688 43.71875 C 81.554688 44.097656 81.28125 44.367188 80.898438 44.367188 C 80.5 44.367188 80.242188 44.097656 80.242188 43.71875 Z M 80.242188 36.203125 " fill-opacity="1" fill-rule="nonzero"/><path fill="rgb(6.669617%, 11.369324%, 14.118958%)" d="M 90.171875 37.574219 L 90.171875 38.222656 C 90.171875 38.601562 89.921875 38.847656 89.550781 38.847656 C 89.167969 38.847656 88.929688 38.601562 88.929688 38.222656 L 88.929688 37.363281 C 88.929688 36.863281 88.660156 36.617188 88.222656 36.617188 C 87.789062 36.617188 87.53125 36.863281 87.53125 37.363281 L 87.53125 42.554688 C 87.53125 43.058594 87.789062 43.300781 88.222656 43.300781 C 88.65625 43.300781 88.929688 43.058594 88.929688 42.554688 L 88.929688 41.699219 C 88.929688 41.320312 89.167969 41.074219 89.550781 41.074219 C 89.921875 41.074219 90.171875 41.320312 90.171875 41.699219 L 90.171875 42.347656 C 90.171875 43.59375 89.488281 44.414062 88.210938 44.414062 C 86.910156 44.414062 86.214844 43.621094 86.214844 42.347656 L 86.214844 37.574219 C 86.214844 36.300781 86.910156 35.503906 88.210938 35.503906 C 89.488281 35.503906 90.171875 36.324219 90.171875 37.574219 Z M 90.171875 37.574219 " fill-opacity="1" fill-rule="nonzero"/><path fill="rgb(6.669617%, 11.369324%, 14.118958%)" d="M 94.734375 36.324219 C 94.734375 35.945312 95.003906 35.675781 95.390625 35.675781 L 97.867188 35.675781 C 98.214844 35.675781 98.453125 35.921875 98.453125 36.25 C 98.453125 36.59375 98.214844 36.824219 97.867188 36.824219 L 96.046875 36.824219 L 96.046875 39.324219 L 97.460938 39.324219 C 97.792969 39.324219 98.042969 39.566406 98.042969 39.898438 C 98.042969 40.242188 97.792969 40.472656 97.460938 40.472656 L 96.046875 40.472656 L 96.046875 43.09375 L 97.882812 43.09375 C 98.226562 43.09375 98.464844 43.339844 98.464844 43.667969 C 98.464844 44 98.226562 44.242188 97.882812 44.242188 L 95.390625 44.242188 C 95.003906 44.242188 94.734375 43.972656 94.734375 43.59375 Z M 94.734375 36.324219 " fill-opacity="1" fill-rule="nonzero"/><path fill="rgb(6.669617%, 11.369324%, 14.118958%)" d="M 104.179688 40.867188 L 104.179688 43.71875 C 104.179688 44.097656 103.90625 44.367188 103.523438 44.367188 C 103.136719 44.367188 102.867188 44.097656 102.867188 43.71875 L 102.867188 36.324219 C 102.867188 35.945312 103.136719 35.675781 103.523438 35.675781 L 104.6875 35.675781 C 106.039062 35.675781 106.820312 36.347656 106.820312 37.769531 L 106.820312 38.746094 C 106.820312 40.035156 105.953125 40.867188 104.664062 40.867188 Z M 105.503906 37.742188 C 105.503906 37.167969 105.207031 36.824219 104.652344 36.824219 L 104.179688 36.824219 L 104.179688 39.714844 L 104.625 39.714844 C 105.183594 39.714844 105.503906 39.382812 105.503906 38.796875 Z M 105.503906 37.742188 " fill-opacity="1" fill-rule="nonzero"/><path fill="rgb(6.669617%, 11.369324%, 14.118958%)" d="M 111.21875 36.203125 C 111.21875 35.824219 111.492188 35.554688 111.878906 35.554688 C 112.261719 35.554688 112.535156 35.824219 112.535156 36.203125 L 112.535156 43.09375 L 114.144531 43.09375 C 114.480469 43.09375 114.726562 43.339844 114.726562 43.667969 C 114.726562 44 114.480469 44.246094 114.144531 44.246094 L 111.878906 44.246094 C 111.492188 44.246094 111.21875 43.976562 111.21875 43.597656 Z M 111.21875 36.203125 " fill-opacity="1" fill-rule="nonzero"/><path fill="rgb(6.669617%, 11.369324%, 14.118958%)" d="M 123.085938 43.585938 C 123.183594 44.085938 122.824219 44.367188 122.464844 44.367188 C 122.167969 44.367188 121.871094 44.171875 121.808594 43.753906 L 121.597656 42.261719 L 120.296875 42.261719 L 120.097656 43.753906 C 120.035156 44.171875 119.761719 44.367188 119.441406 44.367188 C 119.082031 44.367188 118.722656 44.085938 118.820312 43.585938 L 120.257812 36.164062 C 120.34375 35.75 120.554688 35.554688 120.953125 35.554688 C 121.347656 35.554688 121.558594 35.75 121.644531 36.164062 Z M 120.457031 41.136719 L 121.449219 41.136719 L 121 37.855469 C 120.988281 37.742188 120.964844 37.597656 120.953125 37.4375 C 120.941406 37.597656 120.914062 37.757812 120.902344 37.855469 Z M 120.457031 41.136719 " fill-opacity="1" fill-rule="nonzero"/><path fill="rgb(6.669617%, 11.369324%, 14.118958%)" d="M 127.3125 42.078125 C 127.3125 41.660156 127.546875 41.453125 127.917969 41.453125 C 128.316406 41.453125 128.550781 41.699219 128.550781 42.078125 L 128.550781 42.371094 C 128.550781 42.910156 128.726562 43.328125 129.28125 43.328125 C 129.789062 43.328125 130.003906 42.960938 130.003906 42.359375 C 130.003906 41.441406 129.492188 40.964844 128.910156 40.4375 C 128.007812 39.628906 127.25 38.808594 127.25 37.585938 C 127.25 36.203125 128.007812 35.503906 129.207031 35.503906 C 130.359375 35.503906 131.117188 36.238281 131.117188 37.425781 L 131.117188 37.855469 C 131.117188 38.222656 130.871094 38.453125 130.496094 38.453125 C 130.136719 38.453125 129.878906 38.222656 129.878906 37.855469 L 129.878906 37.460938 C 129.878906 36.9375 129.65625 36.617188 129.207031 36.617188 C 128.726562 36.617188 128.539062 36.960938 128.539062 37.484375 C 128.539062 38.28125 128.984375 38.757812 129.554688 39.285156 C 130.261719 39.945312 131.292969 40.878906 131.292969 42.234375 C 131.292969 43.507812 130.496094 44.414062 129.257812 44.414062 C 128.03125 44.414062 127.3125 43.558594 127.3125 42.417969 Z M 127.3125 42.078125 " fill-opacity="1" fill-rule="nonzero"/><path fill="rgb(6.669617%, 11.369324%, 14.118958%)" d="M 137.863281 36.828125 L 137.863281 43.71875 C 137.863281 44.097656 137.589844 44.367188 137.203125 44.367188 C 136.808594 44.367188 136.546875 44.097656 136.546875 43.71875 L 136.546875 36.828125 L 135.617188 36.828125 C 135.285156 36.828125 135.035156 36.59375 135.035156 36.25 C 135.035156 35.921875 135.285156 35.675781 135.617188 35.675781 L 138.792969 35.675781 C 139.136719 35.675781 139.375 35.921875 139.375 36.25 C 139.375 36.59375 139.136719 36.828125 138.792969 36.828125 Z M 137.863281 36.828125 " fill-opacity="1" fill-rule="nonzero"/><path fill="rgb(6.669617%, 11.369324%, 14.118958%)" d="M 143.550781 36.203125 C 143.550781 35.824219 143.8125 35.554688 144.207031 35.554688 C 144.59375 35.554688 144.867188 35.824219 144.867188 36.203125 L 144.867188 43.71875 C 144.867188 44.097656 144.59375 44.367188 144.207031 44.367188 C 143.8125 44.367188 143.550781 44.097656 143.550781 43.71875 Z M 143.550781 36.203125 " fill-opacity="1" fill-rule="nonzero"/><path fill="rgb(6.669617%, 11.369324%, 14.118958%)" d="M 153.480469 37.574219 L 153.480469 38.222656 C 153.480469 38.601562 153.234375 38.847656 152.863281 38.847656 C 152.476562 38.847656 152.242188 38.601562 152.242188 38.222656 L 152.242188 37.363281 C 152.242188 36.863281 151.96875 36.617188 151.535156 36.617188 C 151.101562 36.617188 150.839844 36.863281 150.839844 37.363281 L 150.839844 42.554688 C 150.839844 43.058594 151.101562 43.300781 151.535156 43.300781 C 151.96875 43.300781 152.242188 43.058594 152.242188 42.554688 L 152.242188 41.699219 C 152.242188 41.320312 152.476562 41.074219 152.863281 41.074219 C 153.234375 41.074219 153.480469 41.320312 153.480469 41.699219 L 153.480469 42.347656 C 153.480469 43.59375 152.800781 44.414062 151.523438 44.414062 C 150.222656 44.414062 149.527344 43.621094 149.527344 42.347656 L 149.527344 37.574219 C 149.527344 36.300781 150.222656 35.503906 151.523438 35.503906 C 152.800781 35.503906 153.480469 36.324219 153.480469 37.574219 Z M 153.480469 37.574219 " fill-opacity="1" fill-rule="nonzero"/><g clip-path="url(#id3)"><path fill="rgb(6.669617%, 11.369324%, 14.118958%)" d="M 157.871094 37.546875 C 157.871094 36.3125 158.664062 35.503906 159.929688 35.503906 C 161.191406 35.503906 161.988281 36.3125 161.988281 37.546875 L 161.988281 42.371094 C 161.988281 43.609375 161.191406 44.417969 159.929688 44.417969 C 158.664062 44.417969 157.871094 43.609375 157.871094 42.371094 Z M 160.671875 37.363281 C 160.671875 36.925781 160.386719 36.617188 159.929688 36.617188 C 159.46875 36.617188 159.183594 36.925781 159.183594 37.363281 L 159.183594 42.554688 C 159.183594 42.996094 159.46875 43.300781 159.929688 43.300781 C 160.386719 43.300781 160.671875 42.996094 160.671875 42.554688 Z M 160.671875 37.363281 " fill-opacity="1" fill-rule="nonzero"/></g></svg>