<svg xmlns="http://www.w3.org/2000/svg" xmlns:xlink="http://www.w3.org/1999/xlink" width="220" zoomAndPan="magnify" viewBox="0 0 165 82.499998" height="110" preserveAspectRatio="xMidYMid meet" version="1.0"><defs><clipPath id="id1"><path d="M 0.496094 0 L 164.503906 0 L 164.503906 82.003906 L 0.496094 82.003906 Z M 0.496094 0 " clip-rule="nonzero"/></clipPath></defs><g clip-path="url(#id1)"><path fill="#ffffff" d="M 0.496094 0 L 164.503906 0 L 164.503906 89.457031 L 0.496094 89.457031 Z M 0.496094 0 " fill-opacity="1" fill-rule="nonzero"/><path fill="#ffffff" d="M 0.496094 0 L 164.503906 0 L 164.503906 82.003906 L 0.496094 82.003906 Z M 0.496094 0 " fill-opacity="1" fill-rule="nonzero"/><path fill="#ffffff" d="M 0.496094 0 L 164.503906 0 L 164.503906 82.003906 L 0.496094 82.003906 Z M 0.496094 0 " fill-opacity="1" fill-rule="nonzero"/><path fill="#ffffff" d="M 0.496094 0 L 164.503906 0 L 164.503906 82.003906 L 0.496094 82.003906 Z M 0.496094 0 " fill-opacity="1" fill-rule="nonzero"/></g><path fill="#000000" d="M 151.507812 37.398438 C 149.308594 37.398438 147.570312 35.609375 147.570312 33.476562 C 147.570312 31.34375 149.367188 29.554688 151.507812 29.554688 C 153.652344 29.554688 155.449219 31.34375 155.449219 33.476562 C 155.449219 35.609375 153.710938 37.398438 151.507812 37.398438 Z M 151.507812 30.132812 C 149.65625 30.132812 148.148438 31.632812 148.148438 33.476562 C 148.148438 35.320312 149.65625 36.820312 151.507812 36.820312 C 153.363281 36.820312 154.867188 35.320312 154.867188 33.476562 C 154.867188 31.632812 153.363281 30.132812 151.507812 30.132812 Z M 151.507812 30.132812 " fill-opacity="1" fill-rule="nonzero"/><path fill="#000000" d="M 9.71875 30.074219 L 23.039062 30.074219 L 23.039062 32.84375 L 12.960938 32.84375 L 12.960938 39.359375 L 22.054688 39.359375 L 22.054688 42.125 L 12.960938 42.125 L 12.960938 51.46875 L 9.71875 51.46875 Z M 9.71875 30.074219 " fill-opacity="1" fill-rule="nonzero"/><path fill="#000000" d="M 26.457031 30.074219 L 29.699219 30.074219 L 29.699219 48.640625 L 39.371094 48.640625 L 39.371094 51.410156 L 26.398438 51.410156 L 26.398438 30.074219 Z M 26.457031 30.074219 " fill-opacity="1" fill-rule="nonzero"/><path fill="#000000" d="M 49.742188 51.699219 C 44.179688 51.699219 40.066406 47.546875 40.066406 40.742188 C 40.066406 33.878906 44.179688 29.785156 49.742188 29.785156 C 55.300781 29.785156 59.414062 33.9375 59.414062 40.742188 C 59.355469 47.546875 55.242188 51.699219 49.742188 51.699219 Z M 49.742188 32.726562 C 46.035156 32.726562 43.3125 35.550781 43.3125 40.742188 C 43.3125 45.933594 46.089844 48.757812 49.742188 48.757812 C 53.449219 48.757812 56.171875 45.933594 56.171875 40.742188 C 56.171875 35.550781 53.390625 32.726562 49.742188 32.726562 Z M 49.742188 32.726562 " fill-opacity="1" fill-rule="nonzero"/><path fill="#000000" d="M 97.121094 30.074219 L 100.363281 30.074219 L 100.363281 51.46875 L 97.121094 51.46875 Z M 97.121094 30.074219 " fill-opacity="1" fill-rule="nonzero"/><path fill="#000000" d="M 118.609375 45.757812 L 118.4375 45.757812 L 107.488281 30.074219 L 104.535156 30.074219 L 104.535156 51.410156 L 107.71875 51.410156 L 107.71875 35.726562 L 107.953125 35.726562 L 118.839844 51.410156 L 121.851562 51.410156 L 121.851562 30.074219 L 118.609375 30.074219 Z M 118.609375 45.757812 " fill-opacity="1" fill-rule="nonzero"/><path fill="#000000" d="M 143.980469 40.511719 L 135.523438 40.511719 L 135.523438 43.164062 L 140.851562 43.164062 C 140.792969 46.625 138.476562 48.816406 135.058594 48.816406 C 131.292969 48.816406 128.515625 45.988281 128.515625 40.742188 C 128.515625 35.550781 131.292969 32.726562 134.941406 32.726562 C 137.78125 32.726562 139.75 34.285156 140.503906 36.820312 L 143.804688 36.820312 C 143.109375 32.667969 139.519531 29.785156 134.886719 29.785156 C 129.324219 29.785156 125.269531 33.9375 125.269531 40.800781 C 125.269531 47.546875 129.207031 51.757812 135 51.757812 C 137.433594 51.757812 139.578125 51.007812 141.082031 49.679688 L 141.082031 51.582031 L 143.921875 51.582031 L 143.921875 43.105469 C 143.921875 43.050781 143.921875 43.050781 143.921875 42.992188 L 143.921875 40.511719 Z M 143.980469 40.511719 " fill-opacity="1" fill-rule="nonzero"/><path fill="#000000" d="M 88.027344 45.585938 C 88.027344 47.199219 86.695312 48.46875 85.128906 48.46875 C 83.566406 48.46875 82.234375 47.144531 82.234375 45.585938 L 82.234375 35.378906 C 82.117188 32.613281 79.859375 30.421875 77.078125 30.421875 C 74.242188 30.421875 71.984375 32.613281 71.925781 35.4375 L 71.925781 45.703125 C 71.925781 47.316406 70.59375 48.585938 69.027344 48.585938 C 67.40625 48.585938 66.132812 47.257812 66.132812 45.703125 L 66.132812 36.1875 C 66.132812 32.84375 63.410156 30.074219 60.050781 30.015625 L 60.050781 33.304688 C 61.613281 33.363281 62.890625 34.628906 62.890625 36.1875 L 62.890625 45.585938 C 62.890625 48.988281 65.667969 51.757812 69.085938 51.757812 C 72.445312 51.757812 75.285156 48.929688 75.285156 45.585938 L 75.285156 35.550781 C 75.285156 34.515625 76.09375 33.707031 77.136719 33.707031 C 78.121094 33.707031 78.933594 34.457031 78.992188 35.4375 L 78.992188 45.585938 C 78.992188 48.988281 81.769531 51.757812 85.1875 51.757812 C 88.546875 51.757812 91.386719 48.929688 91.386719 45.585938 L 91.386719 36.1875 C 91.386719 34.628906 92.660156 33.304688 94.222656 33.304688 L 94.222656 30.015625 C 91.15625 30.074219 88.492188 32.382812 88.085938 35.4375 L 88.085938 45.585938 Z M 88.027344 45.585938 " fill-opacity="1" fill-rule="nonzero"/><path fill="#000000" d="M 150.40625 31.402344 L 151.796875 31.402344 C 152.726562 31.402344 153.128906 31.917969 153.128906 32.613281 C 153.128906 33.128906 152.898438 33.535156 152.433594 33.707031 L 153.304688 35.265625 L 152.667969 35.265625 L 151.855469 33.824219 C 151.855469 33.824219 151.855469 33.824219 151.796875 33.824219 L 150.988281 33.824219 L 150.988281 35.265625 L 150.40625 35.265625 Z M 151.742188 33.304688 C 152.320312 33.304688 152.550781 33.074219 152.550781 32.613281 C 152.550781 32.152344 152.320312 31.917969 151.742188 31.917969 L 150.988281 31.917969 L 150.988281 33.304688 Z M 151.742188 33.304688 " fill-opacity="1" fill-rule="nonzero"/></svg>