<svg xmlns="http://www.w3.org/2000/svg" xmlns:xlink="http://www.w3.org/1999/xlink" width="220" zoomAndPan="magnify" viewBox="0 0 165 82.499998" height="110" preserveAspectRatio="xMidYMid meet" version="1.0"><defs><clipPath id="id1"><path d="M 0.496094 0 L 164.503906 0 L 164.503906 82.003906 L 0.496094 82.003906 Z M 0.496094 0 " clip-rule="nonzero"/></clipPath></defs><g clip-path="url(#id1)"><path fill="#ffffff" d="M 0.496094 0 L 164.503906 0 L 164.503906 89.457031 L 0.496094 89.457031 Z M 0.496094 0 " fill-opacity="1" fill-rule="nonzero"/><path fill="#ffffff" d="M 0.496094 0 L 164.503906 0 L 164.503906 82.003906 L 0.496094 82.003906 Z M 0.496094 0 " fill-opacity="1" fill-rule="nonzero"/><path fill="#ffffff" d="M 0.496094 0 L 164.503906 0 L 164.503906 82.003906 L 0.496094 82.003906 Z M 0.496094 0 " fill-opacity="1" fill-rule="nonzero"/><path fill="#ffffff" d="M 0.496094 0 L 164.503906 0 L 164.503906 82.003906 L 0.496094 82.003906 Z M 0.496094 0 " fill-opacity="1" fill-rule="nonzero"/></g><path fill="#131d20" d="M 53.667969 28.84375 C 53.304688 28.46875 53.027344 28.039062 52.832031 27.554688 C 52.636719 27.066406 52.542969 26.5625 52.546875 26.039062 C 52.554688 25.519531 52.65625 25.015625 52.863281 24.535156 C 53.066406 24.050781 53.355469 23.628906 53.726562 23.257812 C 54.097656 22.890625 54.527344 22.609375 55.011719 22.410156 C 55.496094 22.210938 56 22.109375 56.523438 22.109375 C 57.046875 22.109375 57.550781 22.210938 58.035156 22.410156 C 58.519531 22.609375 58.949219 22.890625 59.320312 23.257812 C 59.507812 23.441406 59.675781 23.640625 59.820312 23.859375 C 59.964844 24.074219 60.089844 24.304688 60.1875 24.542969 C 60.289062 24.785156 60.363281 25.035156 60.410156 25.289062 C 60.460938 25.546875 60.484375 25.804688 60.480469 26.066406 C 60.480469 26.324219 60.449219 26.582031 60.394531 26.839844 C 60.339844 27.09375 60.261719 27.339844 60.15625 27.578125 C 60.050781 27.816406 59.925781 28.042969 59.773438 28.257812 C 59.625 28.46875 59.453125 28.667969 59.265625 28.84375 C 59.082031 29.027344 58.882812 29.191406 58.664062 29.335938 C 58.449219 29.484375 58.222656 29.605469 57.980469 29.703125 C 57.742188 29.804688 57.492188 29.878906 57.238281 29.929688 C 56.984375 29.980469 56.726562 30.007812 56.46875 30.007812 C 56.207031 30.007812 55.949219 29.980469 55.695312 29.929688 C 55.441406 29.878906 55.191406 29.804688 54.953125 29.703125 C 54.710938 29.605469 54.484375 29.484375 54.269531 29.335938 C 54.050781 29.191406 53.851562 29.027344 53.667969 28.84375 M 53.382812 34.300781 L 59.609375 34.300781 L 59.609375 63.089844 L 53.382812 63.089844 Z M 53.382812 34.300781 " fill-opacity="1" fill-rule="nonzero"/><path fill="#131d20" d="M 91.609375 45.425781 L 91.609375 63.097656 L 85.382812 63.097656 L 85.382812 46.058594 C 85.382812 41.742188 82.90625 39.390625 78.925781 39.390625 C 74.542969 39.390625 71.601562 42.097656 71.601562 47.679688 L 71.601562 63.109375 L 65.375 63.109375 L 65.375 34.320312 L 71.601562 34.320312 L 71.601562 37.996094 C 73.507812 35.0625 76.445312 33.566406 80.539062 33.566406 C 87.167969 33.566406 91.609375 38.054688 91.609375 45.425781 " fill-opacity="1" fill-rule="nonzero"/><path fill="#131d20" d="M 112.945312 40.300781 L 105.796875 40.300781 L 105.796875 54.117188 C 105.796875 57.800781 108.226562 57.753906 112.945312 57.515625 L 112.945312 63.097656 C 103.433594 64.25 99.570312 61.65625 99.570312 54.117188 L 99.570312 40.300781 L 94.265625 40.300781 L 94.265625 34.316406 L 99.570312 34.316406 L 99.570312 28.097656 L 105.796875 26.253906 L 105.796875 34.316406 L 112.945312 34.316406 Z M 112.945312 40.300781 " fill-opacity="1" fill-rule="nonzero"/><path fill="#131d20" d="M 118.828125 59.46875 C 118.125 58.761719 117.496094 57.992188 116.945312 57.160156 C 116.394531 56.328125 115.925781 55.449219 115.546875 54.527344 C 115.164062 53.605469 114.878906 52.65625 114.683594 51.675781 C 114.492188 50.695312 114.394531 49.707031 114.394531 48.710938 C 114.394531 47.714844 114.492188 46.726562 114.683594 45.746094 C 114.878906 44.765625 115.164062 43.816406 115.546875 42.894531 C 115.925781 41.972656 116.394531 41.09375 116.945312 40.261719 C 117.496094 39.429688 118.125 38.660156 118.828125 37.953125 C 121.769531 35.019531 125.402344 33.578125 129.609375 33.578125 C 133.878906 33.578125 137.453125 35.019531 140.394531 37.953125 C 141.097656 38.660156 141.722656 39.429688 142.277344 40.261719 C 142.828125 41.09375 143.296875 41.972656 143.675781 42.894531 C 144.054688 43.816406 144.34375 44.765625 144.539062 45.746094 C 144.730469 46.726562 144.828125 47.714844 144.828125 48.710938 C 144.828125 49.707031 144.730469 50.695312 144.539062 51.675781 C 144.34375 52.65625 144.054688 53.605469 143.675781 54.527344 C 143.296875 55.449219 142.828125 56.328125 142.277344 57.160156 C 141.722656 57.992188 141.097656 58.761719 140.394531 59.46875 C 137.453125 62.40625 133.878906 63.84375 129.609375 63.84375 C 125.402344 63.84375 121.769531 62.40625 118.828125 59.46875 M 129.609375 57.800781 C 130.8125 57.832031 131.96875 57.621094 133.078125 57.167969 C 134.191406 56.71875 135.167969 56.066406 136.007812 55.210938 C 137.738281 53.484375 138.605469 51.296875 138.605469 48.703125 C 138.605469 46.113281 137.738281 43.929688 136.007812 42.199219 C 135.585938 41.789062 135.125 41.421875 134.628906 41.097656 C 134.132812 40.777344 133.613281 40.503906 133.0625 40.28125 C 132.515625 40.058594 131.949219 39.890625 131.371094 39.78125 C 130.789062 39.667969 130.203125 39.609375 129.609375 39.609375 C 129.019531 39.609375 128.433594 39.667969 127.851562 39.78125 C 127.269531 39.890625 126.707031 40.058594 126.160156 40.28125 C 125.609375 40.503906 125.089844 40.777344 124.59375 41.097656 C 124.097656 41.421875 123.636719 41.789062 123.210938 42.199219 C 121.480469 43.929688 120.617188 46.113281 120.617188 48.703125 C 120.617188 51.296875 121.480469 53.484375 123.210938 55.210938 C 124.054688 56.066406 125.03125 56.71875 126.144531 57.167969 C 127.253906 57.621094 128.410156 57.832031 129.609375 57.800781 " fill-opacity="1" fill-rule="nonzero"/><path fill="#131d20" d="M 16.59375 22.800781 L 23.222656 22.800781 L 23.222656 39.324219 L 16.59375 39.324219 Z M 16.59375 22.800781 " fill-opacity="1" fill-rule="nonzero"/><path fill="#131d20" d="M 16.59375 45.652344 L 23.222656 45.652344 L 23.222656 63.097656 L 16.59375 63.097656 Z M 16.59375 45.652344 " fill-opacity="1" fill-rule="nonzero"/><path fill="#131d20" d="M 40.523438 39.320312 L 23.222656 39.320312 L 23.222656 45.65625 L 40.523438 45.65625 L 40.523438 63.097656 L 47.152344 63.097656 L 47.152344 22.800781 L 40.523438 22.800781 Z M 40.523438 39.320312 " fill-opacity="1" fill-rule="nonzero"/><path fill="#131d20" d="M 9.960938 39.320312 L 16.589844 39.320312 L 16.589844 45.652344 L 9.960938 45.652344 Z M 9.960938 39.320312 " fill-opacity="1" fill-rule="nonzero"/><path fill="#131d20" d="M 150.921875 34.332031 C 151.277344 34.332031 151.625 34.371094 151.964844 34.449219 C 152.308594 34.53125 152.640625 34.648438 152.957031 34.804688 C 153.273438 34.960938 153.566406 35.148438 153.839844 35.371094 C 154.109375 35.59375 154.355469 35.847656 154.570312 36.125 C 154.785156 36.40625 154.964844 36.703125 155.109375 37.023438 C 155.253906 37.347656 155.363281 37.679688 155.429688 38.023438 C 155.5 38.367188 155.527344 38.71875 155.515625 39.070312 C 155.503906 39.421875 155.453125 39.765625 155.363281 40.105469 C 155.269531 40.445312 155.140625 40.773438 154.976562 41.082031 C 154.808594 41.390625 154.609375 41.679688 154.378906 41.945312 C 154.144531 42.210938 153.886719 42.445312 153.601562 42.648438 C 153.3125 42.855469 153.007812 43.023438 152.679688 43.160156 C 152.355469 43.292969 152.019531 43.390625 151.671875 43.445312 C 151.324219 43.503906 150.972656 43.519531 150.621094 43.496094 C 150.269531 43.472656 149.925781 43.410156 149.589844 43.308594 C 149.25 43.207031 148.929688 43.066406 148.625 42.890625 C 148.320312 42.714844 148.039062 42.507812 147.78125 42.265625 C 147.523438 42.027344 147.296875 41.757812 147.101562 41.46875 C 146.90625 41.175781 146.746094 40.863281 146.621094 40.535156 C 146.496094 40.203125 146.414062 39.863281 146.367188 39.515625 C 146.320312 39.167969 146.316406 38.816406 146.351562 38.46875 C 146.382812 38.117188 146.457031 37.777344 146.570312 37.441406 C 146.683594 37.109375 146.835938 36.792969 147.023438 36.496094 C 147.207031 36.195312 147.425781 35.921875 147.675781 35.671875 C 148.101562 35.234375 148.59375 34.898438 149.160156 34.664062 C 149.722656 34.429688 150.3125 34.320312 150.921875 34.332031 Z M 153.871094 41.90625 C 154.066406 41.710938 154.242188 41.5 154.394531 41.269531 C 154.546875 41.039062 154.675781 40.796875 154.78125 40.539062 C 154.886719 40.285156 154.96875 40.019531 155.023438 39.75 C 155.074219 39.476562 155.101562 39.203125 155.101562 38.929688 C 155.101562 38.652344 155.074219 38.378906 155.023438 38.105469 C 154.96875 37.835938 154.886719 37.570312 154.78125 37.316406 C 154.675781 37.0625 154.546875 36.816406 154.394531 36.585938 C 154.242188 36.359375 154.066406 36.144531 153.871094 35.949219 C 153.488281 35.546875 153.039062 35.238281 152.527344 35.023438 C 152.011719 34.808594 151.480469 34.707031 150.921875 34.71875 C 150.363281 34.710938 149.828125 34.8125 149.3125 35.027344 C 148.792969 35.242188 148.34375 35.546875 147.953125 35.949219 C 147.761719 36.144531 147.585938 36.359375 147.433594 36.589844 C 147.28125 36.820312 147.152344 37.0625 147.046875 37.316406 C 146.945312 37.574219 146.863281 37.835938 146.8125 38.109375 C 146.757812 38.378906 146.730469 38.652344 146.730469 38.929688 C 146.730469 39.203125 146.757812 39.476562 146.8125 39.75 C 146.863281 40.019531 146.945312 40.28125 147.046875 40.539062 C 147.152344 40.792969 147.28125 41.035156 147.433594 41.265625 C 147.585938 41.496094 147.761719 41.710938 147.953125 41.90625 C 148.34375 42.308594 148.792969 42.617188 149.3125 42.828125 C 149.828125 43.042969 150.363281 43.144531 150.921875 43.136719 C 151.480469 43.148438 152.015625 43.042969 152.527344 42.828125 C 153.039062 42.613281 153.488281 42.300781 153.871094 41.898438 Z M 151.992188 39.484375 L 152.96875 41.269531 L 151.902344 41.269531 L 151.078125 39.6875 L 150.390625 39.6875 L 150.390625 41.269531 L 149.414062 41.269531 L 149.414062 36.574219 L 151 36.574219 C 152.105469 36.574219 152.792969 37.234375 152.792969 38.089844 C 152.816406 38.378906 152.753906 38.652344 152.609375 38.90625 C 152.460938 39.160156 152.257812 39.351562 151.992188 39.476562 Z M 150.390625 37.492188 L 150.390625 38.796875 L 151 38.796875 C 151.503906 38.796875 151.808594 38.542969 151.808594 38.152344 C 151.808594 37.707031 151.546875 37.492188 151 37.492188 Z M 150.390625 37.492188 " fill-opacity="1" fill-rule="nonzero"/></svg>