<svg xmlns="http://www.w3.org/2000/svg" xmlns:xlink="http://www.w3.org/1999/xlink" width="220" zoomAndPan="magnify" viewBox="0 0 165 82.499998" height="110" preserveAspectRatio="xMidYMid meet" version="1.0"><defs><clipPath id="id1"><path d="M 0.496094 0 L 164.503906 0 L 164.503906 82.003906 L 0.496094 82.003906 Z M 0.496094 0 " clip-rule="nonzero"/></clipPath></defs><g clip-path="url(#id1)"><path fill="#ffffff" d="M 0.496094 0 L 164.503906 0 L 164.503906 89.457031 L 0.496094 89.457031 Z M 0.496094 0 " fill-opacity="1" fill-rule="nonzero"/><path fill="#ffffff" d="M 0.496094 0 L 164.503906 0 L 164.503906 82.003906 L 0.496094 82.003906 Z M 0.496094 0 " fill-opacity="1" fill-rule="nonzero"/><path fill="#ffffff" d="M 0.496094 0 L 164.503906 0 L 164.503906 82.003906 L 0.496094 82.003906 Z M 0.496094 0 " fill-opacity="1" fill-rule="nonzero"/><path fill="#ffffff" d="M 0.496094 0 L 164.503906 0 L 164.503906 82.003906 L 0.496094 82.003906 Z M 0.496094 0 " fill-opacity="1" fill-rule="nonzero"/></g><path fill="#000000" d="M 9.550781 55.585938 L 26.386719 55.585938 C 33.808594 55.585938 38.351562 52.488281 38.351562 47.429688 C 38.351562 43.839844 36.039062 41.308594 32.269531 40.777344 L 32.269531 40.617188 C 35.390625 40.085938 37.339844 37.882812 37.339844 34.78125 C 37.339844 29.96875 32.875 27.03125 25.574219 27.03125 L 9.550781 27.03125 Z M 18.679688 38.453125 L 18.679688 32.742188 L 24.359375 32.742188 C 26.628906 32.742188 28.007812 33.84375 28.007812 35.597656 C 28.007812 37.351562 26.628906 38.453125 24.359375 38.453125 Z M 18.679688 49.671875 L 18.679688 43.960938 L 25.167969 43.960938 C 27.441406 43.960938 28.820312 45.0625 28.820312 46.816406 C 28.820312 48.570312 27.441406 49.671875 25.167969 49.671875 Z M 18.679688 49.671875 " fill-opacity="1" fill-rule="nonzero"/><path fill="#000000" d="M 65.144531 33.761719 L 65.144531 27.03125 L 41.214844 27.03125 L 41.214844 55.585938 L 65.347656 55.585938 L 65.347656 48.652344 L 50.339844 48.652344 L 50.339844 44.164062 L 62.664062 44.164062 L 62.664062 38.046875 L 50.339844 38.046875 L 50.339844 33.761719 Z M 65.144531 33.761719 " fill-opacity="1" fill-rule="nonzero"/><path fill="#000000" d="M 77.921875 48.652344 L 77.921875 27.03125 L 68.792969 27.03125 L 68.792969 55.585938 L 89.5625 55.585938 L 89.5625 48.652344 Z M 77.921875 48.652344 " fill-opacity="1" fill-rule="nonzero"/><path fill="#000000" d="M 123.453125 55.585938 L 111.203125 38.945312 L 123.046875 27.03125 L 112.296875 27.03125 L 101.953125 38.453125 L 101.953125 27.03125 L 92.621094 27.03125 L 92.621094 55.585938 L 101.953125 55.585938 L 101.953125 48.246094 L 105.078125 45.101562 L 112.5 55.585938 Z M 123.453125 55.585938 " fill-opacity="1" fill-rule="nonzero"/><path fill="#000000" d="M 146.433594 55.585938 L 156.089844 55.585938 L 143.71875 27.03125 L 132.359375 27.03125 L 119.988281 55.585938 L 129.558594 55.585938 L 131.871094 49.875 L 144.121094 49.875 Z M 134.550781 43.347656 L 138.039062 34.78125 L 141.484375 43.347656 Z M 134.550781 43.347656 " fill-opacity="1" fill-rule="nonzero"/></svg>