<svg xmlns="http://www.w3.org/2000/svg" xmlns:xlink="http://www.w3.org/1999/xlink" width="220" zoomAndPan="magnify" viewBox="0 0 165 82.499998" height="110" preserveAspectRatio="xMidYMid meet" version="1.0"><defs><clipPath id="id1"><path d="M 0.496094 0 L 164.503906 0 L 164.503906 82.003906 L 0.496094 82.003906 Z M 0.496094 0 " clip-rule="nonzero"/></clipPath></defs><g clip-path="url(#id1)"><path fill="rgb(100%, 100%, 100%)" d="M 0.496094 0 L 164.503906 0 L 164.503906 89.457031 L 0.496094 89.457031 Z M 0.496094 0 " fill-opacity="1" fill-rule="nonzero"/><path fill="rgb(100%, 100%, 100%)" d="M 0.496094 0 L 164.503906 0 L 164.503906 82.003906 L 0.496094 82.003906 Z M 0.496094 0 " fill-opacity="1" fill-rule="nonzero"/><path fill="rgb(100%, 100%, 100%)" d="M 0.496094 0 L 164.503906 0 L 164.503906 82.003906 L 0.496094 82.003906 Z M 0.496094 0 " fill-opacity="1" fill-rule="nonzero"/><path fill="rgb(100%, 100%, 100%)" d="M 0.496094 0 L 164.503906 0 L 164.503906 82.003906 L 0.496094 82.003906 Z M 0.496094 0 " fill-opacity="1" fill-rule="nonzero"/></g><path fill="rgb(4.309082%, 1.959229%, 11.369324%)" d="M 39.191406 43.191406 C 38.878906 42.617188 38.453125 42 38.046875 42.1875 C 37.449219 42.460938 36.636719 44.226562 37.023438 44.453125 C 37.410156 44.683594 39.5 43.765625 39.191406 43.191406 " fill-opacity="1" fill-rule="nonzero"/><path fill="rgb(4.309082%, 1.959229%, 11.369324%)" d="M 37.707031 31.839844 C 33.058594 31.832031 28.609375 33.757812 25.4375 37.15625 L 25.4375 13.800781 L 15.609375 26.332031 L 15.609375 64.460938 L 25.4375 64.460938 L 25.4375 49.136719 C 26.167969 49.917969 28.847656 51.289062 31.089844 49.117188 C 32.867188 47.394531 32.648438 44.699219 32.648438 44.699219 C 32.648438 44.699219 31.796875 49.117188 28.835938 49.089844 C 24.15625 49.046875 25.160156 45.375 27.144531 42.332031 C 29.714844 38.382812 32.277344 39.167969 35.082031 39.117188 C 38.398438 39.058594 40.699219 40.457031 41.039062 40.660156 C 41.375 40.859375 45.824219 40.785156 48.195312 40.816406 C 50.171875 40.84375 49.703125 41.726562 49.296875 45.34375 C 48.890625 48.960938 46.640625 49.445312 41.753906 51.316406 C 38.21875 52.671875 37.4375 58.742188 30.875 63.507812 C 33.027344 64.464844 35.351562 64.957031 37.707031 64.953125 C 46.949219 64.953125 54.445312 57.539062 54.445312 48.394531 C 54.445312 39.25 46.949219 31.839844 37.707031 31.839844 " fill-opacity="1" fill-rule="nonzero"/><path fill="rgb(4.309082%, 1.959229%, 11.369324%)" d="M 75.882812 47.894531 C 77.882812 47.402344 79.171875 46.195312 79.171875 43.972656 C 79.171875 40.902344 77.058594 39.066406 71.46875 39.066406 L 64.589844 39.066406 L 64.589844 58.261719 L 72.539062 58.261719 C 78.019531 58.261719 80.210938 55.90625 80.210938 52.722656 C 80.210938 50.144531 78.839844 48.472656 75.882812 47.894531 Z M 71.769531 42.382812 C 73.769531 42.382812 74.921875 42.90625 74.921875 44.523438 C 74.921875 46.140625 73.742188 46.773438 72.234375 46.773438 L 68.78125 46.773438 L 68.78125 42.382812 Z M 72.703125 54.945312 L 68.78125 54.945312 L 68.78125 49.734375 L 72.648438 49.734375 C 74.128906 49.734375 75.882812 50.171875 75.882812 52.421875 C 75.882812 54.175781 74.539062 54.945312 72.703125 54.945312 Z M 72.703125 54.945312 " fill-opacity="1" fill-rule="nonzero"/><path fill="rgb(4.309082%, 1.959229%, 11.369324%)" d="M 96.632812 39.066406 L 83.832031 39.066406 L 83.832031 58.261719 L 96.878906 58.261719 L 96.878906 54.808594 L 88.023438 54.808594 L 88.023438 50.144531 L 96.054688 50.144531 L 96.054688 46.800781 L 88.023438 46.800781 L 88.023438 42.519531 L 96.632812 42.519531 Z M 96.632812 39.066406 " fill-opacity="1" fill-rule="nonzero"/><path fill="rgb(4.309082%, 1.959229%, 11.369324%)" d="M 105.265625 39.066406 L 101.070312 39.066406 L 101.070312 58.261719 L 113.542969 58.261719 L 113.542969 54.671875 L 105.265625 54.671875 Z M 105.265625 39.066406 " fill-opacity="1" fill-rule="nonzero"/><path fill="rgb(4.309082%, 1.959229%, 11.369324%)" d="M 128.480469 58.261719 L 133.414062 58.261719 L 125.933594 46.882812 L 132.730469 39.066406 L 127.796875 39.066406 L 120.699219 47.457031 L 120.699219 39.066406 L 116.503906 39.066406 L 116.503906 58.261719 L 120.699219 58.261719 L 120.699219 52.503906 L 123.082031 49.816406 Z M 128.480469 58.261719 " fill-opacity="1" fill-rule="nonzero"/><path fill="rgb(4.309082%, 1.959229%, 11.369324%)" d="M 147.667969 58.261719 L 152.109375 58.261719 L 145.886719 39.066406 L 140.625 39.066406 L 134.402344 58.261719 L 138.679688 58.261719 L 139.554688 55.246094 L 146.792969 55.246094 Z M 143.171875 42.273438 L 145.859375 51.898438 L 140.488281 51.898438 Z M 143.171875 42.273438 " fill-opacity="1" fill-rule="nonzero"/></svg>