<svg xmlns="http://www.w3.org/2000/svg" xmlns:xlink="http://www.w3.org/1999/xlink" width="220" zoomAndPan="magnify" viewBox="0 0 165 82.499998" height="110" preserveAspectRatio="xMidYMid meet" version="1.0"><defs><clipPath id="id1"><path d="M 0.496094 0 L 164.503906 0 L 164.503906 82.003906 L 0.496094 82.003906 Z M 0.496094 0 " clip-rule="nonzero"/></clipPath></defs><g clip-path="url(#id1)"><path fill="#ffffff" d="M 0.496094 0 L 164.503906 0 L 164.503906 89.457031 L 0.496094 89.457031 Z M 0.496094 0 " fill-opacity="1" fill-rule="nonzero"/><path fill="#ffffff" d="M 0.496094 0 L 164.503906 0 L 164.503906 82.003906 L 0.496094 82.003906 Z M 0.496094 0 " fill-opacity="1" fill-rule="nonzero"/><path fill="#ffffff" d="M 0.496094 0 L 164.503906 0 L 164.503906 82.003906 L 0.496094 82.003906 Z M 0.496094 0 " fill-opacity="1" fill-rule="nonzero"/><path fill="#ffffff" d="M 0.496094 0 L 164.503906 0 L 164.503906 82.003906 L 0.496094 82.003906 Z M 0.496094 0 " fill-opacity="1" fill-rule="nonzero"/></g><path fill="#3e00ea" d="M 21.886719 61.222656 C 21.382812 61.164062 20.855469 61.136719 20.324219 61.082031 C 18.929688 60.886719 17.589844 60.472656 16.363281 59.835938 C 15.832031 59.558594 15.332031 59.25 14.855469 58.917969 C 13.710938 58.144531 12.734375 57.171875 11.925781 56.0625 C 11.007812 54.816406 10.335938 53.429688 9.945312 51.957031 C 9.640625 50.90625 9.5 49.824219 9.5 48.714844 C 9.5 39.394531 9.5 30.050781 9.5 20.730469 L 9.5 20.34375 C 9.695312 20.34375 9.890625 20.34375 10.085938 20.34375 C 11.789062 20.484375 13.433594 20.925781 14.96875 21.648438 C 15.859375 22.035156 16.726562 22.480469 17.5625 22.980469 C 17.839844 23.144531 18.09375 23.3125 18.371094 23.476562 C 18.425781 23.503906 18.453125 23.535156 18.484375 23.589844 C 18.511719 23.644531 18.511719 23.699219 18.511719 23.753906 C 18.511719 23.839844 18.511719 23.894531 18.511719 23.976562 C 18.511719 31.519531 18.511719 39.0625 18.511719 46.605469 C 18.511719 47.492188 18.621094 48.382812 18.902344 49.214844 C 19.179688 50.101562 19.625 50.933594 20.210938 51.679688 C 20.660156 52.207031 21.105469 52.707031 21.636719 53.179688 C 21.886719 53.429688 22.136719 53.679688 22.359375 53.898438 C 22.695312 54.234375 23.03125 54.59375 23.390625 54.925781 C 23.449219 54.953125 23.476562 55.007812 23.503906 55.09375 C 23.53125 55.148438 23.53125 55.203125 23.503906 55.285156 C 23.421875 55.757812 23.53125 56.257812 23.8125 56.644531 C 24.089844 57.035156 24.507812 57.3125 25.011719 57.394531 C 25.371094 57.449219 25.761719 57.421875 26.097656 57.253906 C 26.433594 57.089844 26.710938 56.839844 26.90625 56.507812 C 27.046875 56.257812 27.128906 55.980469 27.128906 55.703125 C 27.128906 55.425781 27.101562 55.121094 26.960938 54.871094 C 26.851562 54.621094 26.65625 54.371094 26.433594 54.203125 C 26.210938 54.039062 25.957031 53.898438 25.679688 53.84375 C 25.457031 53.816406 25.234375 53.816406 25.011719 53.816406 C 24.953125 53.816406 24.925781 53.816406 24.871094 53.816406 C 24.816406 53.789062 24.785156 53.789062 24.757812 53.734375 C 24.285156 53.261719 23.8125 52.761719 23.335938 52.292969 C 22.972656 51.929688 22.609375 51.570312 22.25 51.210938 C 21.800781 50.765625 21.441406 50.265625 21.132812 49.710938 C 20.628906 48.769531 20.378906 47.6875 20.378906 46.605469 L 20.378906 24.863281 C 20.433594 24.917969 20.492188 24.949219 20.519531 24.976562 C 21.273438 25.585938 22.027344 26.195312 22.777344 26.804688 C 23.726562 27.609375 24.621094 28.46875 25.457031 29.355469 C 25.875 29.800781 26.292969 30.246094 26.683594 30.714844 C 27.410156 31.519531 28.078125 32.351562 28.71875 33.238281 C 28.886719 33.488281 29.082031 33.710938 29.25 33.960938 C 29.335938 34.070312 29.363281 34.183594 29.363281 34.320312 C 29.363281 34.847656 29.363281 35.402344 29.363281 35.929688 C 29.363281 37.980469 29.363281 40.0625 29.363281 42.113281 C 29.363281 43.222656 29.585938 44.332031 30.003906 45.386719 C 30.421875 46.355469 31.007812 47.242188 31.761719 47.964844 L 34.078125 50.265625 C 34.1875 50.378906 34.300781 50.515625 34.4375 50.628906 C 34.496094 50.683594 34.550781 50.738281 34.578125 50.820312 C 34.605469 50.90625 34.605469 50.988281 34.578125 51.070312 C 34.410156 51.652344 34.300781 52.234375 34.105469 52.816406 C 33.910156 53.371094 33.65625 53.871094 33.433594 54.398438 C 33.40625 54.453125 33.378906 54.511719 33.324219 54.59375 C 33.265625 54.539062 33.210938 54.511719 33.183594 54.453125 L 30.867188 52.125 L 28.945312 50.210938 C 28.441406 49.710938 27.9375 49.242188 27.464844 48.742188 C 27.046875 48.296875 26.683594 47.769531 26.40625 47.214844 C 25.957031 46.300781 25.761719 45.304688 25.761719 44.304688 C 25.761719 41.835938 25.761719 39.394531 25.761719 36.929688 C 25.761719 36.84375 25.761719 36.789062 25.792969 36.707031 C 25.820312 36.652344 25.875 36.566406 25.929688 36.539062 C 26.210938 36.316406 26.433594 36.039062 26.542969 35.679688 C 26.65625 35.347656 26.683594 34.988281 26.601562 34.625 C 26.515625 34.265625 26.320312 33.960938 26.042969 33.738281 C 25.761719 33.488281 25.429688 33.351562 25.09375 33.292969 C 24.730469 33.238281 24.367188 33.292969 24.0625 33.460938 C 23.726562 33.628906 23.476562 33.847656 23.28125 34.183594 C 23.085938 34.488281 23 34.847656 23.03125 35.207031 C 23.058594 35.570312 23.167969 35.902344 23.390625 36.207031 C 23.503906 36.34375 23.617188 36.457031 23.753906 36.566406 C 23.8125 36.621094 23.867188 36.679688 23.894531 36.734375 C 23.921875 36.816406 23.949219 36.898438 23.921875 36.957031 C 23.921875 38.3125 23.921875 39.699219 23.921875 41.085938 C 23.921875 42.308594 23.921875 43.527344 23.921875 44.75 C 23.949219 45.941406 24.230469 47.105469 24.785156 48.160156 C 25.121094 48.824219 25.539062 49.433594 26.042969 49.988281 C 26.515625 50.488281 27.019531 50.960938 27.492188 51.429688 C 27.742188 51.679688 27.96875 51.902344 28.21875 52.152344 C 28.804688 52.734375 29.363281 53.316406 29.949219 53.898438 C 30.617188 54.566406 31.257812 55.230469 31.929688 55.867188 C 32.039062 55.980469 32.125 56.0625 32.261719 56.171875 C 32.207031 56.257812 32.152344 56.339844 32.09375 56.421875 C 31.734375 56.839844 31.371094 57.28125 30.953125 57.671875 C 29.863281 58.753906 28.582031 59.613281 27.15625 60.222656 C 26.292969 60.582031 25.429688 60.859375 24.507812 61.027344 C 24.453125 61.027344 24.425781 61.027344 24.367188 61.027344 C 24.339844 61.027344 24.285156 61 24.257812 60.945312 C 24.007812 60.695312 23.726562 60.445312 23.476562 60.167969 C 22.917969 59.585938 22.332031 59.03125 21.773438 58.449219 L 19.070312 55.730469 L 17.253906 53.925781 C 16.976562 53.648438 16.699219 53.34375 16.390625 53.039062 C 16.363281 53.011719 16.335938 52.957031 16.308594 52.929688 C 15.804688 52.292969 15.414062 51.542969 15.164062 50.765625 C 14.96875 50.128906 14.882812 49.460938 14.882812 48.796875 L 14.882812 30.132812 C 14.882812 30.078125 14.882812 29.96875 14.882812 29.9375 C 14.882812 29.882812 14.882812 29.828125 14.941406 29.773438 C 14.96875 29.71875 15.023438 29.691406 15.078125 29.660156 C 15.609375 29.441406 16.027344 29.050781 16.335938 28.582031 C 16.558594 28.21875 16.699219 27.804688 16.753906 27.359375 C 16.78125 26.917969 16.699219 26.5 16.53125 26.113281 C 16.335938 25.667969 16.054688 25.335938 15.722656 25.058594 C 15.386719 24.78125 14.996094 24.585938 14.550781 24.503906 C 14.132812 24.421875 13.683594 24.421875 13.265625 24.53125 C 12.847656 24.640625 12.457031 24.863281 12.152344 25.140625 C 11.703125 25.558594 11.398438 26.113281 11.3125 26.722656 C 11.230469 27.332031 11.339844 27.941406 11.621094 28.46875 C 11.898438 28.96875 12.316406 29.382812 12.847656 29.605469 C 12.929688 29.632812 12.988281 29.691406 13.015625 29.746094 C 13.042969 29.800781 13.070312 29.882812 13.042969 29.96875 C 13.042969 32.519531 13.042969 35.070312 13.042969 37.648438 C 13.042969 41.394531 13.042969 45.109375 13.042969 48.824219 C 13.042969 49.851562 13.238281 50.875 13.601562 51.847656 C 13.992188 52.847656 14.550781 53.761719 15.300781 54.539062 C 15.886719 55.148438 16.472656 55.730469 17.058594 56.3125 C 17.28125 56.535156 17.507812 56.757812 17.757812 57.003906 L 19.460938 58.726562 C 20.128906 59.390625 20.796875 60.054688 21.46875 60.722656 C 21.605469 60.859375 21.800781 61.027344 21.941406 61.164062 C 21.96875 61.191406 21.96875 61.222656 21.886719 61.222656 Z M 21.886719 61.222656 " fill-opacity="1" fill-rule="nonzero"/><path fill="#3e00ea" d="M 31.230469 37.039062 C 31.34375 37.234375 31.453125 37.371094 31.539062 37.539062 C 31.898438 38.257812 32.289062 39.007812 32.625 39.730469 C 32.875 40.226562 33.070312 40.726562 33.265625 41.253906 C 33.492188 41.863281 33.714844 42.5 33.910156 43.113281 C 34.242188 44.136719 34.464844 45.191406 34.605469 46.246094 C 34.71875 46.882812 34.773438 47.519531 34.773438 48.160156 C 34.773438 48.214844 34.773438 48.269531 34.773438 48.410156 C 34.660156 48.324219 34.605469 48.269531 34.523438 48.1875 C 33.910156 47.578125 33.324219 46.964844 32.710938 46.355469 C 32.625 46.273438 32.570312 46.191406 32.515625 46.105469 C 32.039062 45.46875 31.675781 44.777344 31.453125 44.027344 C 31.285156 43.472656 31.175781 42.890625 31.175781 42.308594 C 31.175781 40.617188 31.175781 38.898438 31.175781 37.203125 C 31.203125 37.175781 31.230469 37.121094 31.230469 37.039062 Z M 31.230469 37.039062 " fill-opacity="1" fill-rule="nonzero"/><path fill="#3e00ea" d="M 14.882812 27.167969 C 14.882812 27.277344 14.882812 27.386719 14.828125 27.5 C 14.800781 27.609375 14.714844 27.722656 14.632812 27.804688 C 14.550781 27.886719 14.464844 27.941406 14.355469 28 C 14.242188 28.054688 14.132812 28.054688 14.019531 28.054688 C 13.90625 28.054688 13.796875 28.027344 13.683594 28 C 13.574219 27.941406 13.488281 27.886719 13.40625 27.804688 C 13.320312 27.722656 13.265625 27.636719 13.210938 27.527344 C 13.15625 27.414062 13.125 27.304688 13.125 27.195312 C 13.125 27.082031 13.15625 26.972656 13.183594 26.859375 C 13.238281 26.75 13.292969 26.667969 13.378906 26.582031 C 13.460938 26.5 13.546875 26.445312 13.65625 26.390625 C 13.769531 26.335938 13.878906 26.304688 13.992188 26.304688 C 14.101562 26.304688 14.214844 26.335938 14.328125 26.363281 C 14.4375 26.417969 14.523438 26.472656 14.605469 26.554688 C 14.6875 26.640625 14.746094 26.722656 14.800781 26.832031 C 14.855469 26.917969 14.882812 27.027344 14.882812 27.167969 Z M 14.882812 27.167969 " fill-opacity="1" fill-rule="nonzero"/><path fill="#3e00ea" d="M 39.765625 35.597656 C 41.523438 35.597656 42.945312 34.183594 42.945312 32.433594 C 42.945312 30.6875 41.523438 29.273438 39.765625 29.273438 C 38.007812 29.273438 36.585938 30.6875 36.585938 32.433594 C 36.585938 34.15625 38.007812 35.597656 39.765625 35.597656 Z M 39.765625 35.597656 " fill-opacity="1" fill-rule="nonzero"/><path fill="#3e00ea" d="M 42.5 37.621094 L 37.0625 37.621094 L 37.0625 53.207031 L 42.5 53.207031 Z M 42.5 37.621094 " fill-opacity="1" fill-rule="nonzero"/><path fill="#3e00ea" d="M 67.300781 35.597656 C 69.058594 35.597656 70.480469 34.183594 70.480469 32.433594 C 70.480469 30.6875 69.058594 29.273438 67.300781 29.273438 C 65.542969 29.273438 64.121094 30.6875 64.121094 32.433594 C 64.089844 34.15625 65.542969 35.597656 67.300781 35.597656 Z M 67.300781 35.597656 " fill-opacity="1" fill-rule="nonzero"/><path fill="#3e00ea" d="M 70.003906 37.621094 L 64.566406 37.621094 L 64.566406 53.207031 L 70.003906 53.207031 Z M 70.003906 37.621094 " fill-opacity="1" fill-rule="nonzero"/><path fill="#3e00ea" d="M 87.941406 35.597656 C 89.699219 35.597656 91.121094 34.183594 91.121094 32.433594 C 91.121094 30.6875 89.699219 29.273438 87.941406 29.273438 C 86.183594 29.273438 84.761719 30.6875 84.761719 32.433594 C 84.761719 34.15625 86.183594 35.597656 87.941406 35.597656 Z M 87.941406 35.597656 " fill-opacity="1" fill-rule="nonzero"/><path fill="#3e00ea" d="M 90.675781 37.621094 L 85.238281 37.621094 L 85.238281 53.207031 L 90.675781 53.207031 Z M 90.675781 37.621094 " fill-opacity="1" fill-rule="nonzero"/><path fill="#3e00ea" d="M 83.257812 37.316406 L 80.355469 37.316406 L 80.355469 32.046875 L 74.914062 32.046875 L 74.914062 37.316406 L 72.015625 37.316406 L 72.015625 41.476562 L 74.914062 41.476562 L 74.914062 53.207031 L 80.355469 53.207031 L 80.355469 41.476562 L 83.257812 41.476562 Z M 83.257812 37.316406 " fill-opacity="1" fill-rule="nonzero"/><path fill="#3e00ea" d="M 147.890625 37.621094 C 146.328125 37.621094 144.820312 38.066406 143.539062 38.925781 C 142.253906 39.785156 141.25 41.003906 140.664062 42.417969 C 140.078125 43.832031 139.910156 45.414062 140.21875 46.910156 C 140.523438 48.410156 141.277344 49.824219 142.367188 50.90625 C 143.453125 51.984375 144.847656 52.734375 146.382812 53.039062 C 147.890625 53.34375 149.480469 53.179688 150.902344 52.597656 C 152.324219 52.015625 153.550781 51.015625 154.417969 49.738281 C 155.28125 48.464844 155.726562 46.964844 155.726562 45.414062 C 155.726562 43.332031 154.890625 41.363281 153.441406 39.894531 C 151.960938 38.425781 149.980469 37.621094 147.890625 37.621094 Z M 147.890625 48.574219 C 147.25 48.574219 146.632812 48.382812 146.132812 48.046875 C 145.601562 47.6875 145.210938 47.214844 144.960938 46.632812 C 144.710938 46.050781 144.652344 45.414062 144.792969 44.804688 C 144.90625 44.195312 145.210938 43.640625 145.65625 43.195312 C 146.105469 42.75 146.664062 42.445312 147.277344 42.335938 C 147.890625 42.222656 148.53125 42.28125 149.117188 42.5 C 149.703125 42.75 150.203125 43.140625 150.539062 43.667969 C 150.902344 44.195312 151.070312 44.804688 151.070312 45.414062 C 151.070312 46.246094 150.734375 47.050781 150.148438 47.660156 C 149.535156 48.242188 148.726562 48.574219 147.890625 48.574219 Z M 147.890625 48.574219 " fill-opacity="1" fill-rule="nonzero"/><path fill="#3e00ea" d="M 99.964844 37.621094 C 97.984375 37.789062 96.144531 38.675781 94.804688 40.117188 C 93.464844 41.558594 92.710938 43.445312 92.710938 45.414062 C 92.710938 47.382812 93.464844 49.269531 94.804688 50.710938 C 96.144531 52.152344 97.984375 53.039062 99.964844 53.179688 L 99.964844 53.207031 L 110.230469 53.207031 L 110.230469 37.648438 L 99.964844 37.648438 Z M 101.445312 48.4375 C 100.859375 48.4375 100.273438 48.269531 99.769531 47.9375 C 99.269531 47.605469 98.878906 47.132812 98.652344 46.578125 C 98.429688 46.023438 98.375 45.414062 98.488281 44.832031 C 98.597656 44.25 98.90625 43.722656 99.324219 43.277344 C 99.742188 42.863281 100.300781 42.558594 100.886719 42.445312 C 101.472656 42.335938 102.085938 42.390625 102.644531 42.613281 C 103.199219 42.835938 103.675781 43.222656 104.011719 43.722656 C 104.34375 44.222656 104.511719 44.804688 104.511719 45.386719 C 104.511719 46.191406 104.175781 46.9375 103.621094 47.492188 C 103.007812 48.105469 102.253906 48.410156 101.445312 48.4375 Z M 101.445312 48.4375 " fill-opacity="1" fill-rule="nonzero"/><path fill="#3e00ea" d="M 52.070312 37.621094 C 50.089844 37.789062 48.246094 38.675781 46.90625 40.117188 C 45.570312 41.558594 44.816406 43.445312 44.816406 45.414062 C 44.816406 47.382812 45.570312 49.269531 46.90625 50.710938 C 48.246094 52.152344 50.089844 53.039062 52.070312 53.179688 L 52.070312 53.207031 L 52.851562 53.207031 C 54.523438 53.207031 56.140625 52.597656 57.425781 51.488281 C 57.453125 52.320312 57.3125 53.125 57.035156 53.898438 C 57.035156 53.925781 57.007812 53.984375 57.007812 54.011719 L 56.976562 54.011719 L 56.949219 54.039062 C 56.476562 55.371094 55.027344 56.339844 53.324219 56.339844 C 51.707031 56.339844 50.339844 55.480469 49.78125 54.261719 L 45.347656 56.0625 C 46.40625 59.03125 49.640625 61.191406 53.464844 61.191406 C 57.339844 61.191406 60.605469 58.976562 61.636719 55.953125 L 61.691406 55.953125 C 62.027344 55.0625 62.222656 54.121094 62.277344 53.152344 L 62.335938 53.152344 L 62.335938 37.59375 L 52.070312 37.59375 Z M 53.546875 48.4375 C 52.960938 48.4375 52.375 48.269531 51.875 47.9375 C 51.371094 47.605469 50.980469 47.132812 50.757812 46.578125 C 50.535156 46.023438 50.480469 45.414062 50.589844 44.832031 C 50.703125 44.25 51.007812 43.722656 51.425781 43.277344 C 51.84375 42.863281 52.402344 42.558594 52.988281 42.445312 C 53.574219 42.335938 54.1875 42.390625 54.746094 42.613281 C 55.304688 42.835938 55.777344 43.222656 56.113281 43.722656 C 56.449219 44.222656 56.617188 44.804688 56.617188 45.386719 C 56.617188 46.191406 56.28125 46.9375 55.722656 47.492188 C 55.109375 48.105469 54.355469 48.410156 53.546875 48.4375 Z M 53.546875 48.4375 " fill-opacity="1" fill-rule="nonzero"/><path fill="#3e00ea" d="M 132.769531 37.621094 L 112.210938 37.621094 L 112.210938 53.207031 L 117.261719 53.207031 L 117.261719 44.886719 C 117.261719 44.222656 117.511719 43.609375 117.984375 43.140625 C 118.460938 42.667969 119.101562 42.417969 119.742188 42.417969 C 120.382812 42.417969 121.027344 42.667969 121.5 43.140625 C 121.976562 43.609375 122.226562 44.25 122.226562 44.886719 L 122.226562 53.207031 L 127.609375 53.207031 L 127.609375 44.886719 C 127.609375 44.222656 127.859375 43.609375 128.335938 43.140625 C 128.808594 42.667969 129.449219 42.417969 130.09375 42.417969 C 130.425781 42.417969 130.734375 42.472656 131.039062 42.613281 C 131.347656 42.722656 131.625 42.917969 131.851562 43.140625 C 132.074219 43.363281 132.269531 43.640625 132.378906 43.945312 C 132.492188 44.25 132.574219 44.554688 132.574219 44.886719 L 132.574219 53.207031 L 138.042969 53.207031 L 138.042969 42.890625 C 138.042969 42.195312 137.902344 41.503906 137.652344 40.867188 C 137.375 40.226562 136.984375 39.644531 136.507812 39.144531 C 136.007812 38.648438 135.421875 38.257812 134.777344 38.007812 C 134.164062 37.730469 133.46875 37.621094 132.769531 37.621094 Z M 132.769531 37.621094 " fill-opacity="1" fill-rule="nonzero"/></svg>