<svg xmlns="http://www.w3.org/2000/svg" xmlns:xlink="http://www.w3.org/1999/xlink" width="220" zoomAndPan="magnify" viewBox="0 0 165 82.499998" height="110" preserveAspectRatio="xMidYMid meet" version="1.0"><defs><clipPath id="id1"><path d="M 0.496094 0 L 164.503906 0 L 164.503906 82.003906 L 0.496094 82.003906 Z M 0.496094 0 " clip-rule="nonzero"/></clipPath></defs><g clip-path="url(#id1)"><path fill="#ffffff" d="M 0.496094 0 L 164.503906 0 L 164.503906 89.457031 L 0.496094 89.457031 Z M 0.496094 0 " fill-opacity="1" fill-rule="nonzero"/><path fill="#ffffff" d="M 0.496094 0 L 164.503906 0 L 164.503906 82.003906 L 0.496094 82.003906 Z M 0.496094 0 " fill-opacity="1" fill-rule="nonzero"/><path fill="#ffffff" d="M 0.496094 0 L 164.503906 0 L 164.503906 82.003906 L 0.496094 82.003906 Z M 0.496094 0 " fill-opacity="1" fill-rule="nonzero"/><path fill="#ffffff" d="M 0.496094 0 L 164.503906 0 L 164.503906 82.003906 L 0.496094 82.003906 Z M 0.496094 0 " fill-opacity="1" fill-rule="nonzero"/></g><path fill="#003a57" d="M 70.015625 29.53125 C 70.582031 29.53125 71.0625 29.8125 71.0625 30.40625 C 71.0625 30.691406 70.898438 30.933594 70.597656 31.050781 C 70.976562 31.15625 71.15625 31.503906 71.15625 31.792969 C 71.15625 32.457031 70.601562 32.652344 70.011719 32.652344 L 68.648438 32.652344 L 68.648438 29.535156 L 70.015625 29.535156 Z M 69.042969 30.875 L 70.039062 30.875 C 70.414062 30.875 70.683594 30.738281 70.683594 30.410156 C 70.683594 30.0625 70.402344 29.882812 70.019531 29.882812 L 69.042969 29.882812 Z M 69.042969 32.285156 L 70.019531 32.285156 C 70.34375 32.285156 70.777344 32.199219 70.777344 31.777344 C 70.773438 31.382812 70.378906 31.222656 70.039062 31.222656 L 69.046875 31.222656 L 69.046875 32.285156 Z M 69.042969 32.285156 " fill-opacity="1" fill-rule="nonzero"/><path fill="#003a57" d="M 73.191406 29.53125 L 75.378906 29.53125 L 75.378906 29.886719 L 73.574219 29.886719 L 73.574219 30.863281 L 75.304688 30.863281 L 75.304688 31.226562 L 73.574219 31.226562 L 73.574219 32.28125 L 75.453125 32.28125 L 75.453125 32.652344 L 73.191406 32.652344 Z M 73.191406 29.53125 " fill-opacity="1" fill-rule="nonzero"/><path fill="#003a57" d="M 81.082031 29.8125 C 80.6875 29.8125 80.261719 29.96875 80.261719 30.34375 C 80.261719 30.683594 80.648438 30.78125 81.109375 30.859375 C 81.734375 30.957031 82.347656 31.078125 82.347656 31.78125 C 82.34375 32.484375 81.671875 32.707031 81.074219 32.707031 C 80.523438 32.707031 79.996094 32.507812 79.757812 31.988281 L 80.078125 31.800781 C 80.28125 32.167969 80.695312 32.347656 81.078125 32.347656 C 81.457031 32.347656 81.960938 32.226562 81.960938 31.769531 C 81.964844 31.382812 81.53125 31.269531 81.0625 31.199219 C 80.460938 31.105469 79.875 30.96875 79.875 30.335938 C 79.867188 29.6875 80.53125 29.464844 81.070312 29.464844 C 81.53125 29.464844 81.972656 29.558594 82.246094 30.03125 L 81.953125 30.210938 C 81.789062 29.941406 81.425781 29.820312 81.082031 29.8125 Z M 81.082031 29.8125 " fill-opacity="1" fill-rule="nonzero"/><path fill="#003a57" d="M 85.941406 31.671875 L 85.863281 31.671875 L 84.730469 30.085938 L 84.730469 32.652344 L 84.347656 32.652344 L 84.347656 29.53125 L 84.8125 29.53125 L 85.910156 31.132812 L 86.996094 29.53125 L 87.460938 29.53125 L 87.460938 32.652344 L 87.078125 32.652344 L 87.078125 30.09375 Z M 85.941406 31.671875 " fill-opacity="1" fill-rule="nonzero"/><path fill="#003a57" d="M 91.167969 29.53125 L 92.5625 32.652344 L 92.144531 32.652344 L 91.835938 31.964844 L 90.054688 31.964844 L 89.75 32.652344 L 89.332031 32.652344 L 90.730469 29.53125 Z M 90.949219 29.925781 L 90.210938 31.609375 L 91.691406 31.609375 Z M 90.949219 29.925781 " fill-opacity="1" fill-rule="nonzero"/><path fill="#003a57" d="M 95.585938 31.527344 L 94.828125 31.527344 L 94.828125 32.652344 L 94.441406 32.652344 L 94.441406 29.53125 L 95.859375 29.53125 C 96.566406 29.53125 96.917969 30.019531 96.917969 30.53125 C 96.921875 31 96.664062 31.441406 96.023438 31.496094 L 97.050781 32.652344 L 96.5625 32.652344 Z M 96.527344 30.539062 C 96.53125 30.230469 96.308594 29.882812 95.859375 29.882812 L 94.828125 29.882812 L 94.828125 31.183594 L 95.839844 31.183594 C 96.308594 31.183594 96.527344 30.890625 96.527344 30.539062 Z M 96.527344 30.539062 " fill-opacity="1" fill-rule="nonzero"/><path fill="#003a57" d="M 98.609375 29.882812 L 98.609375 29.53125 L 101.117188 29.53125 L 101.117188 29.882812 L 100.054688 29.882812 L 100.054688 32.652344 L 99.671875 32.652344 L 99.671875 29.882812 Z M 98.609375 29.882812 " fill-opacity="1" fill-rule="nonzero"/><path fill="#003a57" d="M 107.554688 29.53125 L 107.554688 29.902344 L 105.777344 29.902344 L 105.777344 30.988281 L 107.480469 30.988281 L 107.480469 31.347656 L 105.777344 31.347656 L 105.777344 32.652344 L 105.390625 32.652344 L 105.390625 29.53125 Z M 107.554688 29.53125 " fill-opacity="1" fill-rule="nonzero"/><path fill="#003a57" d="M 110.707031 31.527344 L 109.949219 31.527344 L 109.949219 32.652344 L 109.5625 32.652344 L 109.5625 29.53125 L 110.980469 29.53125 C 111.683594 29.53125 112.039062 30.019531 112.039062 30.53125 C 112.039062 31 111.785156 31.441406 111.140625 31.496094 L 112.171875 32.652344 L 111.683594 32.652344 Z M 111.652344 30.539062 C 111.65625 30.230469 111.433594 29.882812 110.980469 29.882812 L 109.953125 29.882812 L 109.953125 31.183594 L 110.964844 31.183594 C 111.433594 31.183594 111.652344 30.890625 111.652344 30.539062 Z M 111.652344 30.539062 " fill-opacity="1" fill-rule="nonzero"/><path fill="#003a57" d="M 117.09375 31.101562 C 117.089844 31.917969 116.582031 32.710938 115.511719 32.710938 C 114.441406 32.710938 113.925781 31.917969 113.925781 31.101562 C 113.925781 30.195312 114.53125 29.476562 115.515625 29.476562 C 116.574219 29.484375 117.101562 30.277344 117.09375 31.101562 Z M 115.519531 29.835938 C 114.726562 29.835938 114.316406 30.421875 114.316406 31.101562 C 114.316406 31.730469 114.699219 32.347656 115.519531 32.347656 C 116.339844 32.347656 116.707031 31.714844 116.707031 31.101562 C 116.710938 30.46875 116.332031 29.84375 115.519531 29.835938 Z M 115.519531 29.835938 " fill-opacity="1" fill-rule="nonzero"/><path fill="#003a57" d="M 120.707031 31.671875 L 120.628906 31.671875 L 119.5 30.085938 L 119.5 32.652344 L 119.117188 32.652344 L 119.117188 29.53125 L 119.582031 29.53125 L 120.675781 31.132812 L 121.761719 29.53125 L 122.226562 29.53125 L 122.226562 32.652344 L 121.84375 32.652344 L 121.84375 30.09375 Z M 120.707031 31.671875 " fill-opacity="1" fill-rule="nonzero"/><path fill="#003a57" d="M 126.492188 29.882812 L 126.492188 29.53125 L 129.003906 29.53125 L 129.003906 29.882812 L 127.9375 29.882812 L 127.9375 32.652344 L 127.554688 32.652344 L 127.554688 29.882812 Z M 126.492188 29.882812 " fill-opacity="1" fill-rule="nonzero"/><path fill="#003a57" d="M 133.050781 31.242188 L 131.265625 31.242188 L 131.265625 32.652344 L 130.882812 32.652344 L 130.882812 29.53125 L 131.265625 29.53125 L 131.265625 30.882812 L 133.050781 30.882812 L 133.050781 29.53125 L 133.4375 29.53125 L 133.4375 32.652344 L 133.050781 32.652344 Z M 133.050781 31.242188 " fill-opacity="1" fill-rule="nonzero"/><path fill="#003a57" d="M 135.652344 29.53125 L 137.84375 29.53125 L 137.84375 29.886719 L 136.035156 29.886719 L 136.035156 30.863281 L 137.769531 30.863281 L 137.769531 31.226562 L 136.035156 31.226562 L 136.035156 32.28125 L 137.914062 32.28125 L 137.914062 32.652344 L 135.652344 32.652344 Z M 135.652344 29.53125 " fill-opacity="1" fill-rule="nonzero"/><path fill="#003a57" d="M 143.542969 29.8125 C 143.144531 29.8125 142.722656 29.96875 142.722656 30.34375 C 142.722656 30.683594 143.109375 30.78125 143.570312 30.859375 C 144.195312 30.957031 144.804688 31.078125 144.804688 31.78125 C 144.804688 32.484375 144.132812 32.707031 143.535156 32.707031 C 142.980469 32.707031 142.460938 32.507812 142.214844 31.988281 L 142.539062 31.800781 C 142.738281 32.167969 143.15625 32.347656 143.539062 32.347656 C 143.917969 32.347656 144.421875 32.226562 144.421875 31.769531 C 144.421875 31.382812 143.988281 31.269531 143.523438 31.199219 C 142.921875 31.105469 142.335938 30.96875 142.335938 30.335938 C 142.324219 29.6875 142.992188 29.464844 143.527344 29.464844 C 143.992188 29.464844 144.433594 29.558594 144.710938 30.03125 L 144.417969 30.210938 C 144.25 29.941406 143.890625 29.820312 143.542969 29.8125 Z M 143.542969 29.8125 " fill-opacity="1" fill-rule="nonzero"/><path fill="#003a57" d="M 146.46875 29.882812 L 146.46875 29.53125 L 148.980469 29.53125 L 148.980469 29.882812 L 147.914062 29.882812 L 147.914062 32.652344 L 147.53125 32.652344 L 147.53125 29.882812 Z M 146.46875 29.882812 " fill-opacity="1" fill-rule="nonzero"/><path fill="#003a57" d="M 152.066406 29.53125 L 153.464844 32.652344 L 153.042969 32.652344 L 152.734375 31.964844 L 150.953125 31.964844 L 150.648438 32.652344 L 150.222656 32.652344 L 151.621094 29.53125 Z M 151.847656 29.925781 L 151.109375 31.609375 L 152.589844 31.609375 Z M 151.847656 29.925781 " fill-opacity="1" fill-rule="nonzero"/><path fill="#003a57" d="M 156.488281 31.527344 L 155.726562 31.527344 L 155.726562 32.652344 L 155.34375 32.652344 L 155.34375 29.53125 L 156.761719 29.53125 C 157.464844 29.53125 157.816406 30.019531 157.816406 30.53125 C 157.820312 31 157.5625 31.441406 156.921875 31.496094 L 157.949219 32.652344 L 157.460938 32.652344 Z M 157.425781 30.539062 C 157.429688 30.230469 157.207031 29.882812 156.757812 29.882812 L 155.726562 29.882812 L 155.726562 31.183594 L 156.738281 31.183594 C 157.207031 31.183594 157.425781 30.890625 157.425781 30.539062 Z M 157.425781 30.539062 " fill-opacity="1" fill-rule="nonzero"/><path fill="#003a57" d="M 159.507812 29.882812 L 159.507812 29.53125 L 162.019531 29.53125 L 162.019531 29.882812 L 160.953125 29.882812 L 160.953125 32.652344 L 160.570312 32.652344 L 160.570312 29.882812 Z M 159.507812 29.882812 " fill-opacity="1" fill-rule="nonzero"/><path fill="#003a57" d="M 54.363281 53.875 L 54.363281 45.476562 C 54.363281 43.152344 53.117188 41.816406 50.9375 41.816406 C 48.886719 41.816406 47.710938 43.152344 47.710938 45.476562 L 47.710938 53.875 L 44.78125 53.875 L 44.78125 45.476562 C 44.78125 41.546875 47.148438 39.105469 50.957031 39.105469 C 54.804688 39.105469 57.292969 41.605469 57.292969 45.476562 L 57.292969 53.875 Z M 54.363281 53.875 " fill-opacity="1" fill-rule="nonzero"/><path fill="#003a57" d="M 73.832031 54.253906 C 68.179688 54.253906 66.167969 50.429688 66.167969 46.851562 C 66.167969 41.433594 70.015625 39.003906 73.832031 39.003906 C 75.859375 39.003906 77.773438 39.789062 79.21875 41.222656 L 79.335938 41.335938 L 77.445312 43.273438 L 77.324219 43.160156 C 76.453125 42.328125 75.078125 41.789062 73.828125 41.789062 C 71.046875 41.789062 69.109375 43.871094 69.109375 46.851562 C 69.109375 49.066406 70.347656 51.429688 73.828125 51.429688 C 75.027344 51.429688 75.917969 51.125 76.867188 50.378906 L 76.867188 48.113281 L 73.242188 48.113281 L 73.242188 45.390625 L 79.832031 45.390625 L 79.832031 51.382812 L 79.617188 51.644531 C 78.082031 53.398438 76.191406 54.253906 73.832031 54.253906 Z M 73.832031 54.253906 " fill-opacity="1" fill-rule="nonzero"/><path fill="#003a57" d="M 95.144531 53.875 C 91.296875 53.875 88.808594 51.375 88.808594 47.5 L 88.808594 39.105469 L 91.742188 39.105469 L 91.742188 47.5 C 91.742188 49.828125 92.988281 51.160156 95.164062 51.160156 C 97.214844 51.160156 98.390625 49.828125 98.390625 47.5 L 98.390625 39.105469 L 101.320312 39.105469 L 101.320312 47.5 C 101.320312 51.433594 98.957031 53.875 95.144531 53.875 Z M 95.144531 53.875 " fill-opacity="1" fill-rule="nonzero"/><path fill="#003a57" d="M 110.195312 53.875 L 110.195312 39.191406 L 121.765625 39.191406 L 121.765625 42.0625 L 113.125 42.0625 L 113.125 45.300781 L 120.355469 45.300781 L 120.355469 48.066406 L 113.125 48.066406 L 113.125 50.964844 L 121.765625 50.964844 L 121.765625 53.875 Z M 110.195312 53.875 " fill-opacity="1" fill-rule="nonzero"/><path fill="#003a57" d="M 136.199219 54.152344 C 132.984375 54.152344 130.957031 53.003906 129.996094 50.640625 L 129.9375 50.5 L 132.414062 49.214844 L 132.484375 49.386719 C 133.011719 50.699219 134.417969 51.484375 136.238281 51.484375 C 136.949219 51.484375 139.265625 51.347656 139.265625 49.566406 C 139.265625 48.527344 138.261719 47.910156 136.199219 47.6875 C 131.265625 47.101562 130.597656 45.152344 130.597656 43.320312 C 130.597656 40.441406 133.378906 39.132812 136.140625 39.109375 C 138.894531 39.109375 140.828125 40.09375 141.746094 41.960938 L 141.816406 42.105469 L 139.453125 43.320312 L 139.375 43.1875 C 138.949219 42.476562 137.695312 41.722656 136.222656 41.722656 C 134.554688 41.722656 133.515625 42.367188 133.515625 43.402344 C 133.515625 44.425781 134.695312 44.773438 136.464844 44.984375 C 139.445312 45.351562 142.203125 46.164062 142.203125 49.570312 C 142.195312 52.949219 139.097656 54.152344 136.199219 54.152344 Z M 136.199219 54.152344 " fill-opacity="1" fill-rule="nonzero"/><path fill="#003a57" d="M 156.644531 54.21875 C 153.433594 54.21875 151.40625 53.070312 150.445312 50.707031 L 150.386719 50.566406 L 152.867188 49.289062 L 152.933594 49.457031 C 153.464844 50.769531 154.863281 51.550781 156.683594 51.550781 C 157.394531 51.550781 159.707031 51.414062 159.707031 49.636719 C 159.707031 48.59375 158.707031 47.980469 156.648438 47.761719 C 151.714844 47.171875 151.050781 45.226562 151.050781 43.398438 C 151.050781 40.523438 153.832031 39.214844 156.585938 39.191406 C 159.335938 39.191406 161.269531 40.171875 162.183594 42.035156 L 162.257812 42.179688 L 159.894531 43.398438 L 159.8125 43.261719 C 159.386719 42.554688 158.140625 41.796875 156.667969 41.796875 C 154.996094 41.796875 153.957031 42.441406 153.957031 43.476562 C 153.957031 44.496094 155.136719 44.84375 156.902344 45.054688 C 159.882812 45.417969 162.640625 46.226562 162.640625 49.636719 C 162.636719 53.015625 159.539062 54.21875 156.644531 54.21875 Z M 156.644531 54.21875 " fill-opacity="1" fill-rule="nonzero"/><path fill="#003a57" d="M 32.835938 46.492188 L 32.835938 47.9375 L 32.828125 47.9375 C 32.703125 50.03125 31.546875 51.222656 29.605469 51.222656 C 27.546875 51.222656 26.320312 50.03125 26.1875 47.9375 L 26.175781 47.9375 L 26.175781 46.492188 L 23.246094 46.492188 L 23.246094 47.957031 C 23.410156 51.609375 25.859375 53.941406 29.582031 53.941406 C 33.269531 53.941406 35.605469 51.660156 35.761719 47.957031 L 35.761719 46.492188 Z M 32.835938 46.492188 " fill-opacity="1" fill-rule="nonzero"/><path fill="#54c38a" d="M 23.246094 39.113281 L 26.183594 39.113281 L 26.183594 42.050781 L 23.246094 42.050781 Z M 23.246094 39.113281 " fill-opacity="1" fill-rule="evenodd"/><path fill="#003a57" d="M 32.761719 39.113281 L 35.742188 39.113281 L 35.742188 42.09375 L 32.761719 42.09375 Z M 32.761719 39.113281 " fill-opacity="1" fill-rule="evenodd"/><path fill="#b2c4cd" d="M 18.234375 31.980469 L 18.234375 34.917969 L 15.296875 34.917969 L 15.296875 31.980469 Z M 18.234375 31.980469 " fill-opacity="1" fill-rule="evenodd"/><path fill="#809cab" d="M 22.546875 35.824219 L 22.546875 38.761719 L 19.609375 38.761719 L 19.609375 35.824219 Z M 22.546875 35.824219 " fill-opacity="1" fill-rule="evenodd"/><path fill="#cceddc" d="M 12.84375 34.632812 L 12.84375 37.570312 L 9.90625 37.570312 L 9.90625 34.632812 Z M 12.84375 34.632812 " fill-opacity="1" fill-rule="evenodd"/><path fill="#ccd8dd" d="M 8.34375 28.667969 L 8.34375 31.605469 L 5.40625 31.605469 L 5.40625 28.667969 Z M 8.34375 28.667969 " fill-opacity="1" fill-rule="evenodd"/><path fill="#e5ebee" d="M 14.246094 47.941406 L 14.246094 50.878906 L 11.304688 50.878906 L 11.304688 47.941406 Z M 14.246094 47.941406 " fill-opacity="1" fill-rule="evenodd"/><path fill="#a9e1c5" d="M 19.398438 42.710938 L 19.398438 45.644531 L 16.460938 45.644531 L 16.460938 42.710938 Z M 19.398438 42.710938 " fill-opacity="1" fill-rule="evenodd"/></svg>